<svg id="fb082df9-2840-43c4-b105-69f9b024ca5d" data-name="Layer 1" xmlns="http://www.w3.org/2000/svg" viewBox="0 0 603.2 670.73"><defs><style>.e238a194-84d1-4b64-870e-e0a06016738b{fill:#306ebf;}</style></defs><title>bear</title><path class="e238a194-84d1-4b64-870e-e0a06016738b" d="M650.72,569.29c-14.51-58-25.67-119.41-25.67-281.23a278.56,278.56,0,0,0-37.94-139.5c22.32-10.05,36.83-32.37,36.83-58a63.59,63.59,0,0,0-63.62-63.61c-24.55,0-45.75,13.39-55.8,33.48-45.75-29-98.2-45.75-154-45.75h-2.24a271.78,271.78,0,0,0-152.9,46.87C184.22,41.42,163,28,139.58,28A63.58,63.58,0,0,0,76,91.64c0,25.67,14.51,48,36.83,58A278.57,278.57,0,0,0,74.86,289.18c0,161.82-11.16,223.2-25.67,282.35,0,2.23-6.7,43.53,19,77,15.62,20.08,40.18,32.36,71.42,35.71,3.35,0,7.82,1.11,12.28,1.11,25.67,0,56.92-7.81,87-20.08H464.34c34.6,13.39,71.42,22.32,98.21,19,31.25-3.35,55.8-15.63,71.42-35.71,23.44-33.48,16.74-75.89,16.74-79.24ZM560.32,50.35c22.32,0,41.3,19,41.3,41.29,0,17.86-11.16,33.48-26.79,39.06-14.51-21.2-32.36-39.06-52.45-55.8C528,60.39,543.58,50.35,560.32,50.35ZM97.19,91.64c0-22.32,19-41.29,41.29-41.29a41.92,41.92,0,0,1,38,24.55A249.37,249.37,0,0,0,124,130.7C108.35,125.12,97.19,109.5,97.19,91.64ZM283.56,641.83c17.85-10,33.48-21.2,45.75-32.36,11.16-10,17.86-26.78,21.21-45.76,3.34,17.86,10,34.6,21.2,45.76,12.28,11.16,27.9,22.32,45.76,32.36ZM613.89,634c-12.27,15.63-31.25,24.55-55.8,27.9-48,5.58-135-33.48-173-68.07-11.16-10.05-17.86-40.18-16.74-72.54,1.11-30.14,8.93-53.57,20.09-62.5,11.16-7.81,32.36-15.62,37.94-12.28,13.39,6.7,19,24.56,23.44,40.18,3.34,12.28,6.69,22.32,13.39,27.9l1.11,1.12,88.17,52.45c5.58,3.35,12.27,1.11,15.62-3.35,3.35-5.58,1.12-12.28-3.35-15.62l-87-51.34c-2.24-2.23-4.47-10-5.58-16.74-5.58-17.86-13.4-43.52-35.72-54.68-19-8.93-50.22,5.58-61.38,14.5-12.27,8.93-21.2,29-25.66,52.46-4.47-24.56-13.4-43.53-25.67-52.46s-43.53-23.43-61.38-14.5c-22.32,11.16-30.13,35.71-35.71,54.68-2.24,5.58-4.47,14.51-5.58,16.74l-87,51.34c-5.58,3.34-6.7,10-3.35,15.62s10,6.7,15.62,3.35l88.17-52.45a1.09,1.09,0,0,0,1.11-1.12c6.7-5.58,10.05-15.62,13.4-27.9,4.46-15.62,10-33.48,23.43-40.18,5.58-3.34,27.9,3.35,38,12.28,11.16,8.93,19,33.48,20.08,62.5,1.12,32.36-5.58,62.49-16.74,72.54-37.94,34.59-125,72.54-173,68.07-25.67-3.35-43.52-12.27-55.8-27.9-19-24.55-14.51-59.15-14.51-59.15C84.92,515.73,97.2,453.23,97.2,289.18a255.6,255.6,0,0,1,37.94-133.92h1.12l4.46-5.58c15.62-23.44,34.6-43.53,56.92-61.38l5.58-4.47C245.62,53.7,295.84,37,348.3,37h2.23C403,37,453.2,53.7,496.72,83.83l5.58,4.47A228.26,228.26,0,0,1,528,110.62a217.71,217.71,0,0,1,31.24,39.06l4.47,5.58h1.11a255.52,255.52,0,0,1,38,133.92c0,164,12.27,226.54,25.67,284.57,0,1.12,4.46,34.6-14.51,60.27Z" transform="translate(-48.4 -14.64)"/><path d="M467.7,177.57a26.79,26.79,0,1,0,26.78,26.79A26.44,26.44,0,0,0,467.7,177.57Z" transform="translate(-48.4 -14.64)"/><path d="M231.1,177.57a26.79,26.79,0,1,0,26.79,26.79A26.44,26.44,0,0,0,231.1,177.57Z" transform="translate(-48.4 -14.64)"/><path class="e238a194-84d1-4b64-870e-e0a06016738b" d="M349.4,289.17c29,0,52.45-8.93,52.45-20.09S378.42,249,349.4,249,297,257.92,297,269.08,320.38,289.17,349.4,289.17Z" transform="translate(-48.4 -14.64)"/><path class="e238a194-84d1-4b64-870e-e0a06016738b" d="M253.42,281.35c3.35-5.58,2.24-12.27-3.34-15.62s-12.28-2.23-15.63,3.35c-37.94,56.91-37.94,110.48,1.12,157.36,2.23,2.23,5.58,4.46,8.93,4.46,2.23,0,4.46-1.11,6.69-2.23,4.47-3.35,5.58-11.16,2.23-15.62-32.36-40.18-32.36-82.59,0-131.69Z" transform="translate(-48.4 -14.64)"/><path class="e238a194-84d1-4b64-870e-e0a06016738b" d="M448.73,266.85c-5.58,3.35-6.7,10-3.35,15.63,32.37,48,32.37,91.51,1.12,131.68-3.35,4.47-3.35,12.28,2.23,15.63,2.23,1.11,4.46,2.23,6.7,2.23a10.16,10.16,0,0,0,8.92-4.46c37.95-48,37.95-100.44,1.12-157.37-4.46-5.58-12.28-6.69-16.74-3.34Z" transform="translate(-48.4 -14.64)"/><path class="e238a194-84d1-4b64-870e-e0a06016738b" d="M399.63,368.41q-50.22,33.48-100.44,0c-5.58-3.34-12.28-2.23-15.63,3.35s-2.23,12.28,3.35,15.63c21.2,13.39,41.29,20.08,62.5,20.08s41.29-6.69,62.49-20.08c5.58-3.35,6.7-10.05,3.35-15.63C411.9,367.3,405.21,365.07,399.63,368.41Z" transform="translate(-48.4 -14.64)"/></svg>