<svg id="a9514142-cac9-4567-9385-b7d6135c3b63" data-name="Layer 1" xmlns="http://www.w3.org/2000/svg" viewBox="0 0 1839 1968.75"><defs><style>.bdec75bd-e4c2-48dc-85aa-77739a411e30,.fc7cd381-12ef-48c9-a267-736d218e5eff{fill:none;stroke-miterlimit:10;stroke-width:10px;}.fc7cd381-12ef-48c9-a267-736d218e5eff{stroke:#2e6ac0;}.a9ebf69e-3d28-4164-a1b9-9fcf616f807c{font-size:109.31px;}.a11ee613-b3d2-4ec5-bda9-44c5b0c9fe6e,.a9ebf69e-3d28-4164-a1b9-9fcf616f807c,.ac1720fd-720c-4a5b-a702-28e479b5b9f8,.f0d2ef0a-2045-4ac2-b402-8348cd376824{fill:#4170be;}.a11ee613-b3d2-4ec5-bda9-44c5b0c9fe6e,.a9ebf69e-3d28-4164-a1b9-9fcf616f807c,.f0d2ef0a-2045-4ac2-b402-8348cd376824{font-family:VCHenrietta-Trial-Bold, VC Henrietta Trial;font-weight:700;}.f0d2ef0a-2045-4ac2-b402-8348cd376824{font-size:133.46px;}.a11ee613-b3d2-4ec5-bda9-44c5b0c9fe6e{font-size:285.98px;}.bdec75bd-e4c2-48dc-85aa-77739a411e30{stroke:#4170be;}</style></defs><title>bigLOGO</title><path class="fc7cd381-12ef-48c9-a267-736d218e5eff" d="M1036.48,20.64H963.25A850.54,850.54,0,0,0,388.49,244.22h0c-92.75,85-164.42,188.54-215.35,302.39C115,676.47,86,817.45,86,959.72v76.55c0,127.82,23.4,254.72,70.63,373.49,50.46,126.9,125.6,242.59,226.06,336.43l4.56,4.25a850.55,850.55,0,0,0,580.56,229h64.11a850.55,850.55,0,0,0,580.56-229l4.56-4.25c105.3-98.35,182.77-220.72,233.47-354.84C1893.66,1277.2,1915,1156,1915,1033.9V961.66c0-126.32-22.87-251.75-69-369.34-51.73-131.85-129.73-251.83-234.75-348.1h0A850.54,850.54,0,0,0,1036.48,20.64Z" transform="translate(-81 -15.64)"/><text class="a9ebf69e-3d28-4164-a1b9-9fcf616f807c" transform="matrix(0.1, 0.96, -0.99, 0.1, 416.04, 1043.17)">E</text><text class="a9ebf69e-3d28-4164-a1b9-9fcf616f807c" transform="matrix(0.3, 0.92, -0.95, 0.31, 428.53, 1135.04)">S</text><text class="a9ebf69e-3d28-4164-a1b9-9fcf616f807c" transform="translate(456.12 1219.1) rotate(64.8) scale(0.97 1)">T</text><text class="a9ebf69e-3d28-4164-a1b9-9fcf616f807c" transform="matrix(0.54, 0.8, -0.83, 0.56, 492.12, 1294.93)">A</text><text class="a9ebf69e-3d28-4164-a1b9-9fcf616f807c" transform="translate(553.49 1380.38) rotate(43.81) scale(0.97 1)">B</text><text class="a9ebf69e-3d28-4164-a1b9-9fcf616f807c" transform="translate(625.02 1445.61) rotate(32.81) scale(0.97 1)">L</text><text class="a9ebf69e-3d28-4164-a1b9-9fcf616f807c" transform="translate(696.68 1488.96) rotate(24.08) scale(0.97 1)">I</text><text class="a9ebf69e-3d28-4164-a1b9-9fcf616f807c" transform="translate(749.9 1512.43) rotate(14.94) scale(0.97 1)">S</text><text class="a9ebf69e-3d28-4164-a1b9-9fcf616f807c" transform="translate(838.03 1534.57) rotate(2.49) scale(0.97 1)">H</text><text class="a9ebf69e-3d28-4164-a1b9-9fcf616f807c" transform="translate(944.37 1538.21) rotate(-5.18) scale(0.97 1)">E</text><text class="a9ebf69e-3d28-4164-a1b9-9fcf616f807c" transform="translate(1035.47 1528.26) rotate(-17.33) scale(0.97 1)">D</text><text class="a9ebf69e-3d28-4164-a1b9-9fcf616f807c" transform="translate(1131.34 1494.2) rotate(-26.1) scale(0.97 1)"> </text><text class="a9ebf69e-3d28-4164-a1b9-9fcf616f807c" transform="matrix(0.83, -0.5, 0.52, 0.86, 1159.71, 1480.17)">I</text><text class="a9ebf69e-3d28-4164-a1b9-9fcf616f807c" transform="matrix(0.73, -0.63, 0.66, 0.76, 1211.05, 1448.91)">N</text><text class="a9ebf69e-3d28-4164-a1b9-9fcf616f807c" transform="translate(1283.33 1381.35) rotate(-49.19) scale(0.97 1)"> </text><text class="a9ebf69e-3d28-4164-a1b9-9fcf616f807c" transform="matrix(0.55, -0.8, 0.83, 0.56, 1305.09, 1357.02)">2</text><text class="a9ebf69e-3d28-4164-a1b9-9fcf616f807c" transform="translate(1353.43 1283.94) rotate(-65.51) scale(0.97 1)">0</text><text class="a9ebf69e-3d28-4164-a1b9-9fcf616f807c" transform="matrix(0.26, -0.93, 0.96, 0.27, 1394.44, 1192)">0</text><text class="a9ebf69e-3d28-4164-a1b9-9fcf616f807c" transform="matrix(0.09, -0.96, 1, 0.1, 1417.51, 1098.55)">1</text><text class="f0d2ef0a-2045-4ac2-b402-8348cd376824" transform="translate(504.82 921.59) rotate(-81.63) scale(0.97 1)">L</text><text class="f0d2ef0a-2045-4ac2-b402-8348cd376824" transform="matrix(0.36, -0.9, 0.93, 0.37, 517.7, 838.1)">O</text><text class="f0d2ef0a-2045-4ac2-b402-8348cd376824" transform="matrix(0.52, -0.81, 0.84, 0.54, 557.57, 738.55)">P</text><text class="f0d2ef0a-2045-4ac2-b402-8348cd376824" transform="matrix(0.68, -0.68, 0.71, 0.71, 606.12, 662.69)">E</text><text class="f0d2ef0a-2045-4ac2-b402-8348cd376824" transform="translate(671.71 598.3) rotate(-31.81) scale(0.97 1)">Z</text><text class="f0d2ef0a-2045-4ac2-b402-8348cd376824" transform="translate(749.24 553.8) rotate(-22.49) scale(0.97 1)"> </text><text class="f0d2ef0a-2045-4ac2-b402-8348cd376824" transform="translate(779.88 541.13) rotate(-15.84) scale(0.97 1)">-</text><text class="f0d2ef0a-2045-4ac2-b402-8348cd376824" transform="matrix(0.95, -0.15, 0.15, 0.99, 832.51, 527.53)"> </text><text class="f0d2ef0a-2045-4ac2-b402-8348cd376824" transform="translate(863.33 521.31) scale(0.97 1)">H</text><text class="f0d2ef0a-2045-4ac2-b402-8348cd376824" transform="translate(976.07 520.81) rotate(12.66) scale(0.97 1)">E</text><text class="f0d2ef0a-2045-4ac2-b402-8348cd376824" transform="translate(1063.17 539.98) rotate(27.35) scale(0.97 1)">R</text><text class="f0d2ef0a-2045-4ac2-b402-8348cd376824" transform="translate(1155.05 588.32) rotate(42.91) scale(0.97 1)">R</text><text class="f0d2ef0a-2045-4ac2-b402-8348cd376824" transform="translate(1230.8 661.15) rotate(56.74) scale(0.97 1)">E</text><text class="f0d2ef0a-2045-4ac2-b402-8348cd376824" transform="translate(1280.77 737.59) rotate(68.65) scale(0.97 1)">R</text><text class="f0d2ef0a-2045-4ac2-b402-8348cd376824" transform="translate(1321.64 837.64) rotate(81.79) scale(0.97 1)">A</text><text class="a11ee613-b3d2-4ec5-bda9-44c5b0c9fe6e" transform="translate(1568.2 1069.53) rotate(103.57)">A</text><text class="a11ee613-b3d2-4ec5-bda9-44c5b0c9fe6e" transform="matrix(-0.52, 0.85, -0.85, -0.52, 1511.12, 1292.69)">D</text><text class="a11ee613-b3d2-4ec5-bda9-44c5b0c9fe6e" transform="translate(1395.48 1484.16) rotate(142.72)">O</text><text class="a11ee613-b3d2-4ec5-bda9-44c5b0c9fe6e" transform="matrix(-0.95, 0.31, -0.31, -0.95, 1215.39, 1616.93)">L</text><text class="a11ee613-b3d2-4ec5-bda9-44c5b0c9fe6e" transform="matrix(-1, 0.01, -0.01, -1, 1045.21, 1672.69)">F</text><text class="a11ee613-b3d2-4ec5-bda9-44c5b0c9fe6e" transform="matrix(-0.97, -0.26, 0.26, -0.97, 852.08, 1683.42)">O</text><text class="a11ee613-b3d2-4ec5-bda9-44c5b0c9fe6e" transform="translate(622.61 1609.13) rotate(-150.25)"> </text><text class="a11ee613-b3d2-4ec5-bda9-44c5b0c9fe6e" transform="matrix(-0.73, -0.68, 0.68, -0.73, 556.77, 1576.9)">L</text><text class="a11ee613-b3d2-4ec5-bda9-44c5b0c9fe6e" transform="translate(422.65 1441.8) rotate(-123.87)">.</text><text class="a11ee613-b3d2-4ec5-bda9-44c5b0c9fe6e" transform="matrix(-0.35, -0.93, 0.93, -0.35, 366.52, 1368.35)">H</text><text class="a11ee613-b3d2-4ec5-bda9-44c5b0c9fe6e" transform="translate(288 1137.83) rotate(-94.59)">.</text><text class="a11ee613-b3d2-4ec5-bda9-44c5b0c9fe6e" transform="translate(270.8 899.19) rotate(-76.43)">A</text><text class="a11ee613-b3d2-4ec5-bda9-44c5b0c9fe6e" transform="translate(327.89 676.03) rotate(-58.55)">D</text><text class="a11ee613-b3d2-4ec5-bda9-44c5b0c9fe6e" transform="matrix(0.8, -0.61, 0.61, 0.8, 443.54, 484.57)">O</text><text class="a11ee613-b3d2-4ec5-bda9-44c5b0c9fe6e" transform="translate(623.63 351.81) rotate(-18.14)">L</text><text class="a11ee613-b3d2-4ec5-bda9-44c5b0c9fe6e" transform="translate(793.82 296.05) rotate(-0.43)">F</text><text class="a11ee613-b3d2-4ec5-bda9-44c5b0c9fe6e" transform="translate(986.94 285.32) rotate(14.84)">O</text><text class="a11ee613-b3d2-4ec5-bda9-44c5b0c9fe6e" transform="translate(1216.39 359.62) rotate(29.75)"> </text><text class="a11ee613-b3d2-4ec5-bda9-44c5b0c9fe6e" transform="matrix(0.73, 0.68, -0.68, 0.73, 1282.24, 391.85)">L</text><text class="a11ee613-b3d2-4ec5-bda9-44c5b0c9fe6e" transform="translate(1416.36 526.96) rotate(56.13)">.</text><text class="a11ee613-b3d2-4ec5-bda9-44c5b0c9fe6e" transform="translate(1472.49 600.41) rotate(69.21)">H</text><text class="a11ee613-b3d2-4ec5-bda9-44c5b0c9fe6e" transform="matrix(0.08, 1, -1, 0.08, 1551, 830.94)">.</text><path class="fc7cd381-12ef-48c9-a267-736d218e5eff" d="M1022.18,388.64H978.06c-128.22,0-251.78,49.79-346.3,139.56h0C575.88,581.28,532.7,645.9,502,717c-35,81.07-52.5,169.08-52.5,257.89v47.79c0,79.79,14.1,159,42.56,233.15,30.4,79.22,75.67,151.44,136.2,210l2.75,2.66c94.9,91.84,219.92,142.92,349.78,142.92h38.63c129.86,0,254.88-51.08,349.79-142.92l2.74-2.66c63.45-61.39,110.13-137.78,140.67-221.5,26-71.26,38.86-147,38.86-223.14v-45.1c0-78.85-13.78-157.16-41.58-230.56-31.17-82.31-78.16-157.2-141.44-217.31h0C1274,438.43,1150.4,388.64,1022.18,388.64Z" transform="translate(-81 -15.64)"/><path class="fc7cd381-12ef-48c9-a267-736d218e5eff" d="M1015.13,588.19H985.36c-86.52,0-169.89,33.54-233.66,94h0C714,718,684.86,761.48,664.15,809.35c-23.62,54.61-35.42,113.9-35.42,173.72v32.19a437.77,437.77,0,0,0,28.71,157c20.52,53.36,51.06,102,91.9,141.47l1.85,1.79c64,61.86,148.4,96.27,236,96.27h26.06c87.63,0,172-34.41,236-96.27l1.85-1.79c42.81-41.36,74.31-92.81,94.92-149.21a438.09,438.09,0,0,0,26.21-150.31V983.89a437.93,437.93,0,0,0-28-155.31c-21-55.45-52.74-105.9-95.44-146.38h0C1185,621.73,1101.64,588.19,1015.13,588.19Z" transform="translate(-81 -15.64)"/><path class="bdec75bd-e4c2-48dc-85aa-77739a411e30" d="M764.73,1000s83.88-129.65,235.13-129.65S1235,1000,1235,1000s-83.88,129.64-235.14,129.64S764.73,1000,764.73,1000Z" transform="translate(-81 -15.64)"/><path class="bdec75bd-e4c2-48dc-85aa-77739a411e30" d="M716.43,1000S817.55,837.31,999.86,837.31,1283.3,1000,1283.3,1000s-101.12,162.69-283.44,162.69S716.43,1000,716.43,1000Z" transform="translate(-81 -15.64)"/><circle class="ac1720fd-720c-4a5b-a702-28e479b5b9f8" cx="918.86" cy="984.36" r="66.09"/><line class="bdec75bd-e4c2-48dc-85aa-77739a411e30" x1="918.86" y1="821.67" x2="918.86" y2="572.55"/><line class="bdec75bd-e4c2-48dc-85aa-77739a411e30" x1="1202.3" y1="984.36" x2="1291.27" y2="984.36"/><line class="bdec75bd-e4c2-48dc-85aa-77739a411e30" x1="547.73" y1="984.36" x2="635.43" y2="984.36"/><path class="bdec75bd-e4c2-48dc-85aa-77739a411e30" d="M999.86,1169" transform="translate(-81 -15.64)"/><line class="bdec75bd-e4c2-48dc-85aa-77739a411e30" x1="918.86" y1="1147.05" x2="918.86" y2="1396.17"/><line class="bdec75bd-e4c2-48dc-85aa-77739a411e30" x1="984.96" y1="828.02" x2="1080.28" y2="605.59"/><line class="bdec75bd-e4c2-48dc-85aa-77739a411e30" x1="1056.13" y1="854.71" x2="1202.3" y2="704.73"/><line class="bdec75bd-e4c2-48dc-85aa-77739a411e30" x1="1128.58" y1="903.01" x2="1273.48" y2="843.27"/><line class="bdec75bd-e4c2-48dc-85aa-77739a411e30" x1="852.77" y1="828.02" x2="757.44" y2="605.59"/><line class="bdec75bd-e4c2-48dc-85aa-77739a411e30" x1="781.59" y1="854.71" x2="635.43" y2="704.73"/><line class="bdec75bd-e4c2-48dc-85aa-77739a411e30" x1="709.15" y1="903.01" x2="564.25" y2="843.27"/><line class="bdec75bd-e4c2-48dc-85aa-77739a411e30" x1="984.96" y1="1140.69" x2="1080.28" y2="1363.12"/><line class="bdec75bd-e4c2-48dc-85aa-77739a411e30" x1="1056.13" y1="1114" x2="1202.3" y2="1263.98"/><line class="bdec75bd-e4c2-48dc-85aa-77739a411e30" x1="1128.58" y1="1065.7" x2="1273.48" y2="1125.44"/><line class="bdec75bd-e4c2-48dc-85aa-77739a411e30" x1="852.77" y1="1140.69" x2="757.44" y2="1363.12"/><line class="bdec75bd-e4c2-48dc-85aa-77739a411e30" x1="781.59" y1="1114" x2="635.43" y2="1263.98"/><line class="bdec75bd-e4c2-48dc-85aa-77739a411e30" x1="709.15" y1="1065.7" x2="564.25" y2="1125.44"/><line class="bdec75bd-e4c2-48dc-85aa-77739a411e30" x1="290.98" y1="984.36" x2="83.8" y2="984.36"/><line class="bdec75bd-e4c2-48dc-85aa-77739a411e30" x1="290.98" y1="1022.49" x2="290.98" y2="947.5"/><line class="bdec75bd-e4c2-48dc-85aa-77739a411e30" x1="188.03" y1="1022.49" x2="188.03" y2="947.5"/><line class="bdec75bd-e4c2-48dc-85aa-77739a411e30" x1="1546.75" y1="983.09" x2="1753.93" y2="983.09"/><line class="bdec75bd-e4c2-48dc-85aa-77739a411e30" x1="1546.75" y1="1021.22" x2="1546.75" y2="946.23"/><line class="bdec75bd-e4c2-48dc-85aa-77739a411e30" x1="1649.7" y1="1021.22" x2="1649.7" y2="946.23"/></svg>