<svg xmlns="http://www.w3.org/2000/svg" viewBox="0 0 910.36 1461.34"><defs><style>.be452103-f514-4aab-b0c0-d810bc3191fb{isolation:isolate;}.b4fa0f4c-0f22-4c37-ba87-dd98553bcaee{fill:#ffe9dc;}.a39a82c8-1ad2-47d2-8e5a-4c555a4f2dae,.b00d1bf3-394f-4bab-b0db-a57039394b63,.b3dc6acf-54d4-45a5-876d-6fb569100280,.b4fa0f4c-0f22-4c37-ba87-dd98553bcaee,.b60d1354-2367-418f-9a91-1acfb694e9b6,.b8223441-de1c-4f0c-a863-fcebbde5ad26{stroke:#111626;stroke-linecap:round;stroke-linejoin:round;stroke-width:6px;}.e0f291b8-ea98-4efe-93e9-16f5522298a5{mix-blend-mode:overlay;}.b16ad33d-8c43-4954-9e03-8bd17ee18310{fill:#101521;}.b8223441-de1c-4f0c-a863-fcebbde5ad26,.e212e5ba-2023-46b6-a9d8-04dbc5e71ee3{fill:none;}.b60d1354-2367-418f-9a91-1acfb694e9b6{fill:#2b2f47;}.b3dc6acf-54d4-45a5-876d-6fb569100280,.b737e571-461e-43a2-bb1a-fc8f4b9a74b1{fill:#fff;}.a39a82c8-1ad2-47d2-8e5a-4c555a4f2dae,.b9d9223d-d408-4664-b60f-ba0e5fb99413{fill:#111626;}.b00d1bf3-394f-4bab-b0db-a57039394b63{fill:#306ebf;}</style></defs><title>character</title><g class="be452103-f514-4aab-b0c0-d810bc3191fb"><g id="b27f8355-d5b7-439f-97a2-289b893ff766" data-name="Layer 1"><path class="b4fa0f4c-0f22-4c37-ba87-dd98553bcaee" d="M1151,599s26-12,36,3c10.67,16,2,76-46,81,0,0-22,3-24-21" transform="translate(-682.29 -317.34)"/><path class="b4fa0f4c-0f22-4c37-ba87-dd98553bcaee" d="M807,597s-33-42-48-12,5,68,5,68,22,34,59,2" transform="translate(-682.29 -317.34)"/><g class="e0f291b8-ea98-4efe-93e9-16f5522298a5"><path class="b16ad33d-8c43-4954-9e03-8bd17ee18310" d="M814.51,640.45a14.32,14.32,0,0,1-6.06,3.58c-4.54,1.3-9.42.35-13.91-1.08-5.64-1.8-11.14-4.41-15.43-8.5s-7.26-9.78-7.17-15.7S774.45,604.08,780,602c4.62-1.73,10.94,2.12,15.57,3.81a55.93,55.93,0,0,1,9.92,4.78Z" transform="translate(-682.29 -317.34)"/><path class="e212e5ba-2023-46b6-a9d8-04dbc5e71ee3" d="M814.51,640.45a14.32,14.32,0,0,1-6.06,3.58c-4.54,1.3-9.42.35-13.91-1.08-5.64-1.8-11.14-4.41-15.43-8.5s-7.26-9.78-7.17-15.7S774.45,604.08,780,602c4.62-1.73,10.94,2.12,15.57,3.81a55.93,55.93,0,0,1,9.92,4.78Z" transform="translate(-682.29 -317.34)"/></g><g class="e0f291b8-ea98-4efe-93e9-16f5522298a5"><path class="b16ad33d-8c43-4954-9e03-8bd17ee18310" d="M1137.83,636.36l15-10.59c3-2.14,6.56-4.38,10.17-3.54a8.34,8.34,0,0,1,5.54,5.15,16,16,0,0,1,.76,7.74,30.39,30.39,0,0,1-35.27,26.65c-1.37-.23-2.88-.66-3.57-1.87-.81-1.39-.17-3.15.48-4.62l9.84-22.26Z" transform="translate(-682.29 -317.34)"/><path class="e212e5ba-2023-46b6-a9d8-04dbc5e71ee3" d="M1137.83,636.36l15-10.59c3-2.14,6.56-4.38,10.17-3.54a8.34,8.34,0,0,1,5.54,5.15,16,16,0,0,1,.76,7.74,30.39,30.39,0,0,1-35.27,26.65c-1.37-.23-2.88-.66-3.57-1.87-.81-1.39-.17-3.15.48-4.62l9.84-22.26Z" transform="translate(-682.29 -317.34)"/></g><path class="b4fa0f4c-0f22-4c37-ba87-dd98553bcaee" d="M1122.27,677.28s0,0,0,0c-20.31,80.6-67.55,110.91-103.08,122.21l-.18.06c-24.89,7.86-44,6.41-44,6.41a189,189,0,0,1-19.88-1.08q-6.42-.7-12.47-1.83l-1.43-.28h0c-67.69-13.35-100.49-66.76-115.56-125.54-.59-2.26-1.14-4.53-1.67-6.81-13.31-57.3-10.6-118.37-7.5-151.68,0,0,37.11,9,72.57-60.16a293.54,293.54,0,0,1,35-10.61C1049.56,418.56,1125,494,1125,494,1136.45,573.68,1133.42,633.05,1122.27,677.28Z" transform="translate(-682.29 -317.34)"/><path class="b8223441-de1c-4f0c-a863-fcebbde5ad26" d="M1019.18,799.52h0l.32,10c.74,0,1.48,0,2.22,0" transform="translate(-682.29 -317.34)"/><path class="b8223441-de1c-4f0c-a863-fcebbde5ad26" d="M1028.45,809.59h-2.3" transform="translate(-682.29 -317.34)"/><path class="b4fa0f4c-0f22-4c37-ba87-dd98553bcaee" d="M1393.2,657.31l-1.7,2.19c-45.3,55.54-90.8,97-132,127.83l-25-50.71c71.41-48.8,117-104.12,117-104.12l2.17-3.46c3.49,3.51,9.65,8.54,19.83,16.46C1381.94,652.06,1388.34,655.66,1393.2,657.31Z" transform="translate(-682.29 -317.34)"/><path class="b8223441-de1c-4f0c-a863-fcebbde5ad26" d="M1139.49,1117.38a1.09,1.09,0,0,1,0,.12h0" transform="translate(-682.29 -317.34)"/><path class="b4fa0f4c-0f22-4c37-ba87-dd98553bcaee" d="M822.56,1081.17c-4.95,5-15.3,17.79-24.06,43.33q-.54,1.57-1,3l0,0s-60-43-97-81c-29.87-30.68-14.12-46.37,33.06-91.79l41.68,38.14c-12.32,10.06-21.62,18-24.74,21.65C739.7,1027,801.39,1067.73,822.56,1081.17Z" transform="translate(-682.29 -317.34)"/><path class="b8223441-de1c-4f0c-a863-fcebbde5ad26" d="M1044,809l0,.06q-6.07.38-12.2.49h-.31c-.9,0-1.79,0-2.7,0h-.32Z" transform="translate(-682.29 -317.34)"/><path class="b60d1354-2367-418f-9a91-1acfb694e9b6" d="M1139.49,1117.51c0,3.78-1.15,85.57-50,110l-9,388v3.39l-67,4.41v-3.8l-4-363h-30l-28,366.87-63.5-4.18-5.48-.36,14.69-359.91,1.28-31.42s-39.46-20.52-38.45-77a136.67,136.67,0,0,1,2.45-23s22.15,4.64,54.28,9.12c5.15.72,10.55,1.43,16.16,2.12C1001.4,1147.14,1100.57,1152,1139.49,1117.51Z" transform="translate(-682.29 -317.34)"/><path class="b8223441-de1c-4f0c-a863-fcebbde5ad26" d="M1013.5,1623.3" transform="translate(-682.29 -317.34)"/><path class="b8223441-de1c-4f0c-a863-fcebbde5ad26" d="M1080.5,1618.89" transform="translate(-682.29 -317.34)"/><path class="b3dc6acf-54d4-45a5-876d-6fb569100280" d="M1589.5,566.5s0,8-34,18-68,27-68,27c-20,22-64,38-79,36s-51-36-51-36-.33-.68-.86-1.93c-3.81-9-18-47.48,4.86-79.07,0,0-36-35-35-48s6-27,37-12c19.63,9.5,27.63,30.62,30.86,44.83,0,0,22.14-22.83,82.14-25.83s53.08,15.91,53.08,15.91c46.82,4.3,51.62,31.3,49.92,38.09-1.92,7.67-18.39,5.09-19.75,4.87,4.15,1,8.06,2.08,11.75,3.13C1592.5,557.5,1589.5,566.5,1589.5,566.5Z" transform="translate(-682.29 -317.34)"/><path class="b8223441-de1c-4f0c-a863-fcebbde5ad26" d="M1394.36,515.33a89.48,89.48,0,0,1,2.14,14.17" transform="translate(-682.29 -317.34)"/><path class="b8223441-de1c-4f0c-a863-fcebbde5ad26" d="M1481.5,554.5c33.74-13.17,58.68-10.76,78.16-6.15l.09,0" transform="translate(-682.29 -317.34)"/><path class="b8223441-de1c-4f0c-a863-fcebbde5ad26" d="M1449.5,518.5c33-13,51-13,51-13a170.11,170.11,0,0,1,29.08-.09" transform="translate(-682.29 -317.34)"/><path class="b8223441-de1c-4f0c-a863-fcebbde5ad26" d="M1559.66,548.35l.09,0" transform="translate(-682.29 -317.34)"/><path class="e212e5ba-2023-46b6-a9d8-04dbc5e71ee3" d="M1416.5,519.5s48,28,36,68" transform="translate(-682.29 -317.34)"/><path class="b9d9223d-d408-4664-b60f-ba0e5fb99413" d="M1417.14,518.4a90.61,90.61,0,0,1,8.76,5.83q4.21,3.12,8.12,6.66a85.59,85.59,0,0,1,13.88,15.92,65.85,65.85,0,0,1,5.13,9.42,52.81,52.81,0,0,1,3.24,10.36,47,47,0,0,1,.83,10.92l-.19,2.75c-.1.91-.26,1.82-.39,2.72l-.2,1.37-.31,1.33-.64,2.68a3,3,0,1,1-5.84-1.38l0-.1.07-.24.65-2.34.32-1.16.23-1.19c.15-.79.33-1.58.45-2.38l.26-2.41a41.31,41.31,0,0,0-.33-9.68,48.54,48.54,0,0,0-2.53-9.47,61.52,61.52,0,0,0-4.4-8.92,82,82,0,0,0-12.6-15.72q-3.63-3.58-7.6-6.79a91.93,91.93,0,0,0-8.22-6l0,0a1.27,1.27,0,0,1,1.32-2.18Z" transform="translate(-682.29 -317.34)"/><path class="b3dc6acf-54d4-45a5-876d-6fb569100280" d="M1393.2,657.31c-4.86-1.65-11.26-5.25-19.7-11.81-10.18-7.92-16.34-13-19.83-16.46-8.85-8.88-.52-7.95,3-19.47.53,1.25.86,1.93.86,1.93s36,34,51,36C1408.5,647.5,1409.09,662.74,1393.2,657.31Z" transform="translate(-682.29 -317.34)"/><path class="e212e5ba-2023-46b6-a9d8-04dbc5e71ee3" d="M959.5,1251.5s54,17,102-13" transform="translate(-682.29 -317.34)"/><path class="b9d9223d-d408-4664-b60f-ba0e5fb99413" d="M960,1249.84a216.82,216.82,0,0,0,25.71,3.09c2.15.11,4.31.21,6.46.28s4.32.06,6.47,0c4.31,0,8.62-.23,12.91-.67a129.77,129.77,0,0,0,49.44-14.88h0a.93.93,0,0,1,1,1.59,103.29,103.29,0,0,1-23.64,12.52l-3.17,1.14-3.21,1c-1.07.35-2.15.67-3.24,1s-2.16.61-3.26.86c-4.37,1-8.8,1.86-13.26,2.46a128.21,128.21,0,0,1-26.92.63,110.76,110.76,0,0,1-13.32-1.95c-2.2-.44-4.38-1-6.55-1.59a64.16,64.16,0,0,1-6.44-2.17,1.75,1.75,0,0,1,1-3.34Z" transform="translate(-682.29 -317.34)"/><polygon class="b00d1bf3-394f-4bab-b0db-a57039394b63" points="142.21 646.16 100.21 682.16 97.34 679.53 92.95 675.51 51.27 637.37 41.21 628.16 63.18 609.01 78.85 595.35 80.21 594.16 88.38 601.01 131.68 637.32 136.24 641.15 142.21 646.16"/><polygon class="b00d1bf3-394f-4bab-b0db-a57039394b63" points="583.21 482.16 525.21 518.16 520.42 507.87 511.35 488.4 494.98 453.25 491.21 445.16 547.21 409.16 547.76 410.27 552.2 419.28 577.21 469.99 583.21 482.16"/><path class="b3dc6acf-54d4-45a5-876d-6fb569100280" d="M958.5,1749.5l2,11s-45,16-87,2c0,0-45,15-82,13s-75-4-91-10c0,0-1-3,3-10" transform="translate(-682.29 -317.34)"/><path class="b3dc6acf-54d4-45a5-876d-6fb569100280" d="M1260.42,1755.5c4,7,3,10,3,10-16,6-54,8-91,10s-82-13-82-13c-42,14-87-2-87-2l2-11" transform="translate(-682.29 -317.34)"/><path class="b3dc6acf-54d4-45a5-876d-6fb569100280" d="M955,1641.26a38.38,38.38,0,0,1-11.48,1.24l11.48-1.24c3.54-1.09,6.52-3.1,6.52-6.76a11.11,11.11,0,0,0-8-11l-2-.13-69-4.54-5-.33s-20,2-20,13a6.65,6.65,0,0,0,1.84,4.81,7,7,0,0,0,.69.64L828.5,1657.5l4.58,4.59c-8-7.5-48.87-40.84-110.58-.59-69,45-19,94-19,94,16,6,49,7,86,9s82-13,82-13c42,14,87-2,87-2C972.5,1700.5,955,1641.26,955,1641.26Zm-121.76,21c.67.64,1.08,1.07,1.22,1.22Z" transform="translate(-682.29 -317.34)"/><path class="b8223441-de1c-4f0c-a863-fcebbde5ad26" d="M833.22,1662.22l-.14-.13.14.13" transform="translate(-682.29 -317.34)"/><path class="b3dc6acf-54d4-45a5-876d-6fb569100280" d="M1005.42,1749.5s45,16,87,2c0,0,45,15,82,13s70-3,86-9c0,0,50-49-19-94-61.71-40.25-102.62-6.91-110.58.59l4.58-4.59L1103.89,1637a8.3,8.3,0,0,0,.69-.64,6.65,6.65,0,0,0,1.84-4.81c0-11-20-13-20-13l-5,.33-69,4.54-2,.13a11.11,11.11,0,0,0-8,11c0,3.66,3,5.67,6.52,6.76l11.48,1.24a38.38,38.38,0,0,1-11.48-1.24S991.42,1700.5,1005.42,1749.5Zm124.06-86.06c.14-.15.55-.58,1.22-1.22Z" transform="translate(-682.29 -317.34)"/><path class="b8223441-de1c-4f0c-a863-fcebbde5ad26" d="M1130.7,1662.22l.14-.13-.14.13" transform="translate(-682.29 -317.34)"/><line class="b8223441-de1c-4f0c-a863-fcebbde5ad26" x1="269.22" y1="1306.03" x2="269.21" y2="1306.16"/><path class="b737e571-461e-43a2-bb1a-fc8f4b9a74b1" d="M951.5,1226.5s-1.91,26.81-25.42,8.28c-.51-.4-1-.83-1.58-1.28l-1.71-3.76a62.58,62.58,0,0,1,2.22,17.82c-.06.68-.12,1.37-.17,2a.11.11,0,0,0,0,.05c-.81,6.84-3.89,11.93-10.33,13.84s-12.2-.23-17.28-4.58c-11.3-9.67-19.13-30.33-22.87-42.07a112.17,112.17,0,0,1,3.15,18.65c2,25-13,21-13,21s-7,3-20-28-18-39-27-63a33.43,33.43,0,0,1-1.78-11.76l22.42-69.52c12.49-9.32,35.36-15.77,35.36-15.77l-5.31,22.32s25.38,12.9,48.59,45.85a188.68,188.68,0,0,1,14.75,24.8A217.06,217.06,0,0,1,951.5,1226.5Z" transform="translate(-682.29 -317.34)"/><path class="b737e571-461e-43a2-bb1a-fc8f4b9a74b1" d="M838.14,1084.22c-.57.41-1.12.84-1.64,1.28,0,0-20.69,41.39-20.78,68.24,0,0-27.5,5.42-18.18-26.21q.42-1.46,1-3c8.76-25.54,19.11-38.3,24.06-43.33a27,27,0,0,1,2.94-2.67S831.78,1071.94,838.14,1084.22Z" transform="translate(-682.29 -317.34)"/><path class="b00d1bf3-394f-4bab-b0db-a57039394b63" d="M1097.5,871.5c31.48,72.81,41.67,240.48,42,245.87h0v.13c-38.92,34.51-138.09,29.63-206.55,21.23-5.61-.69-11-1.4-16.16-2.12-23.21-32.95-48.59-45.85-48.59-45.85q2.92-11.55,5.31-22.32c24.79-111.23,10-160,10-160s-32.15,24.38-65,50L814,954.66l-43.3-36.31,1.83-1.85c48-48.64,103.2-76.93,137.35-91.17,11.23-4.69,20.18-7.85,25.84-9.72,2.37-.78,4.16-1.33,5.31-1.67V814l-5,2.06-1.47.61-.08-.17L921,821a8.62,8.62,0,0,0,.51,1.12,157,157,0,0,0,11.09,18.13c21.72,31,69.77,78.55,108.39-23h0q1.5-3.94,3-8.2c47.86-3,93-18.16,133.29-38.47l25.44,54.62C1140.36,861.94,1097.5,871.5,1097.5,871.5Z" transform="translate(-682.29 -317.34)"/><path class="b8223441-de1c-4f0c-a863-fcebbde5ad26" d="M815.72,1153.74a33.43,33.43,0,0,0,1.78,11.76c9,24,14,32,27,63s20,28,20,28,15,4,13-21a112.17,112.17,0,0,0-3.15-18.65h0c-.77-3-1.61-5.91-2.48-8.53a.66.66,0,0,0,0-.09,114.68,114.68,0,0,0-7.31-17.64l0-.08" transform="translate(-682.29 -317.34)"/><path class="b8223441-de1c-4f0c-a863-fcebbde5ad26" d="M838.14,1084.22c12.49-9.32,35.36-15.77,35.36-15.77" transform="translate(-682.29 -317.34)"/><path class="b8223441-de1c-4f0c-a863-fcebbde5ad26" d="M898.5,1176.5c6.2,8.45,19.06,32.46,24.29,53.24a62.58,62.58,0,0,1,2.22,17.82c0,.7-.09,1.38-.17,2a.11.11,0,0,0,0,.05c-.81,6.84-3.89,11.93-10.33,13.84s-12.2-.23-17.28-4.58c-11.3-9.67-19.13-30.33-22.87-42.07h0c-1.49-4.69-2.33-7.95-2.48-8.53a.66.66,0,0,0,0-.09" transform="translate(-682.29 -317.34)"/><path class="b8223441-de1c-4f0c-a863-fcebbde5ad26" d="M838.14,1084.22c-.57.41-1.12.84-1.64,1.28,0,0-20.69,41.39-20.78,68.24,0,0-27.5,5.42-18.18-26.21q.42-1.46,1-3c8.76-25.54,19.11-38.3,24.06-43.33a27,27,0,0,1,2.94-2.67S831.78,1071.94,838.14,1084.22Z" transform="translate(-682.29 -317.34)"/><path class="b8223441-de1c-4f0c-a863-fcebbde5ad26" d="M868.19,1090.77s25.38,12.9,48.59,45.85c14.87,21.11,28.86,50.44,34.72,89.88,0,0-2,28-27,7" transform="translate(-682.29 -317.34)"/><line class="e212e5ba-2023-46b6-a9d8-04dbc5e71ee3" x1="150.21" y1="840.16" x2="159.21" y2="855.16"/><path class="b9d9223d-d408-4664-b60f-ba0e5fb99413" d="M833.38,1157l10.69,14a3,3,0,1,1-4.79,3.66,2.89,2.89,0,0,1-.35-.58l-7.31-16a1,1,0,0,1,.51-1.37A1,1,0,0,1,833.38,1157Z" transform="translate(-682.29 -317.34)"/><line class="e212e5ba-2023-46b6-a9d8-04dbc5e71ee3" x1="168.21" y1="822.16" x2="181.21" y2="837.16"/><path class="b9d9223d-d408-4664-b60f-ba0e5fb99413" d="M851.21,1138.88l14.56,13.66a3,3,0,0,1-4.13,4.39,3.07,3.07,0,0,1-.41-.47l-11.44-16.34a1,1,0,0,1,.23-1.32A.94.94,0,0,1,851.21,1138.88Z" transform="translate(-682.29 -317.34)"/><path class="e212e5ba-2023-46b6-a9d8-04dbc5e71ee3" d="M867.5,1118.5s13,5,16,11" transform="translate(-682.29 -317.34)"/><path class="b9d9223d-d408-4664-b60f-ba0e5fb99413" d="M867.86,1117.56c1.65.47,3.22,1,4.81,1.6a50.75,50.75,0,0,1,4.7,2,31.65,31.65,0,0,1,4.59,2.68,14.81,14.81,0,0,1,4.22,4.3l.13.21a3,3,0,1,1-5.17,3.18,2.82,2.82,0,0,1-.32-.71,9.5,9.5,0,0,0-2.12-3.18,26.19,26.19,0,0,0-3.43-3.06c-1.25-1-2.57-1.88-3.94-2.73s-2.78-1.69-4.19-2.43h0a1,1,0,0,1,.75-1.87Z" transform="translate(-682.29 -317.34)"/><path class="b4fa0f4c-0f22-4c37-ba87-dd98553bcaee" d="M1028.06,810.58c-14.91,38.18-30.49,51.13-44.55,51.57-26.41.82-47.49-42.47-48.93-45.48L941,814v-.07l1.5-.43.15-10.41a169.19,169.19,0,0,0,16.93,2.26c5,.41,10.12.63,15.42.65,0,0,19.11,1.45,44-6.41l1,9.41,1.72.54h0c1.47,0,2.93.06,4.4.06h0Z" transform="translate(-682.29 -317.34)"/><g class="e0f291b8-ea98-4efe-93e9-16f5522298a5"><path class="b16ad33d-8c43-4954-9e03-8bd17ee18310" d="M983.51,862.15c-26.41.82-47.49-42.47-48.93-45.48L941,814v-.07l1.5-.43.15-10.41a169.19,169.19,0,0,0,16.93,2.26l.34.45,1.18.45a55.76,55.76,0,0,0,17,49.86C980.13,857.93,982.38,859.79,983.51,862.15Z" transform="translate(-682.29 -317.34)"/><path class="e212e5ba-2023-46b6-a9d8-04dbc5e71ee3" d="M983.51,862.15c-26.41.82-47.49-42.47-48.93-45.48L941,814v-.07l1.5-.43.15-10.41a169.19,169.19,0,0,0,16.93,2.26l.34.45,1.18.45a55.76,55.76,0,0,0,17,49.86C980.13,857.93,982.38,859.79,983.51,862.15Z" transform="translate(-682.29 -317.34)"/></g><path class="a39a82c8-1ad2-47d2-8e5a-4c555a4f2dae" d="M1044,809.06q-1.49,4.26-3,8.2h0c-49,128.8-113.15,17.64-119.48,4.86A8.62,8.62,0,0,1,921,821l13.5-4.5.08.17c2.2,4.62,50.54,103.81,93.48-6.09l.39-1h.32c.91,0,1.8,0,2.7,0h.31Q1037.92,809.45,1044,809.06Z" transform="translate(-682.29 -317.34)"/><path class="b8223441-de1c-4f0c-a863-fcebbde5ad26" d="M873,1639s-12.26,1-14.63-4" transform="translate(-682.29 -317.34)"/><path class="e212e5ba-2023-46b6-a9d8-04dbc5e71ee3" d="M859,527s39-61,85-11" transform="translate(-682.29 -317.34)"/><path class="b9d9223d-d408-4664-b60f-ba0e5fb99413" d="M856.47,525.38c1.28-2,2.55-3.69,3.91-5.45s2.77-3.43,4.26-5.06a85.79,85.79,0,0,1,9.57-9.19c6.86-5.61,15-10.25,24.1-12.12a43,43,0,0,1,13.92-.55A46.66,46.66,0,0,1,925.55,497a72.57,72.57,0,0,1,21.51,16.22h0a4.16,4.16,0,0,1-6.07,5.7l-.06-.07A64.46,64.46,0,0,0,922.22,504a39,39,0,0,0-11-3.56,35.64,35.64,0,0,0-11.52.2c-7.67,1.38-15,5.22-21.36,10.23a78.89,78.89,0,0,0-9.05,8.31c-1.43,1.49-2.77,3-4.08,4.64s-2.59,3.27-3.66,4.85l-.06.08a3,3,0,0,1-5-3.32Z" transform="translate(-682.29 -317.34)"/><path class="e212e5ba-2023-46b6-a9d8-04dbc5e71ee3" d="M1004,517s50-50,85,0" transform="translate(-682.29 -317.34)"/><path class="b9d9223d-d408-4664-b60f-ba0e5fb99413" d="M1000.89,513.89c.9-.86,1.66-1.52,2.5-2.25s1.66-1.4,2.5-2.07c1.69-1.34,3.4-2.65,5.16-3.87a95.32,95.32,0,0,1,11-6.74,66,66,0,0,1,25-7.66,43.67,43.67,0,0,1,25.82,5.84c1,.52,1.86,1.2,2.79,1.8l1.38.94c.45.32.86.68,1.29,1l2.55,2.09,2.34,2.29,1.17,1.15c.37.39.71.81,1.07,1.22l2.12,2.46c1.36,1.67,2.57,3.44,3.86,5.16a3,3,0,1,1-4.8,3.6l0,0-.1-.14c-4.66-6.41-10.31-12.05-17-15.76a36.55,36.55,0,0,0-21.84-4.29,58.5,58.5,0,0,0-21.82,7.42,88.35,88.35,0,0,0-9.9,6.45c-1.59,1.17-3.13,2.42-4.64,3.68-.75.64-1.49,1.29-2.21,1.94s-1.48,1.36-2,2l0,0a4.4,4.4,0,1,1-6.29-6.15Z" transform="translate(-682.29 -317.34)"/><line class="e212e5ba-2023-46b6-a9d8-04dbc5e71ee3" x1="399.71" y1="303.66" x2="409.71" y2="309.66"/><path class="b9d9223d-d408-4664-b60f-ba0e5fb99413" d="M1083.17,619.05l10.37,5.38a3,3,0,1,1-2.76,5.33,1.69,1.69,0,0,1-.32-.19l-9.63-6.62a2.28,2.28,0,0,1,2.34-3.9Z" transform="translate(-682.29 -317.34)"/><line class="e212e5ba-2023-46b6-a9d8-04dbc5e71ee3" x1="396.71" y1="320.66" x2="404.71" y2="323.66"/><path class="b9d9223d-d408-4664-b60f-ba0e5fb99413" d="M1079.66,636.25l8.39,1.94a3,3,0,1,1-1.36,5.9,3,3,0,0,1-.74-.28l-7.61-4.06a1.89,1.89,0,0,1,1.32-3.5Z" transform="translate(-682.29 -317.34)"/><line class="e212e5ba-2023-46b6-a9d8-04dbc5e71ee3" x1="173.71" y1="303.66" x2="162.71" y2="309.66"/><path class="b9d9223d-d408-4664-b60f-ba0e5fb99413" d="M857,622.86l-10.57,6.77a3,3,0,1,1-3.25-5.06,2.24,2.24,0,0,1,.37-.2L855,619.14a2.12,2.12,0,0,1,2,3.72Z" transform="translate(-682.29 -317.34)"/><line class="e212e5ba-2023-46b6-a9d8-04dbc5e71ee3" x1="176.71" y1="317.66" x2="167.71" y2="322.66"/><path class="b9d9223d-d408-4664-b60f-ba0e5fb99413" d="M860,636.76l-8.52,5.86a3,3,0,0,1-3.42-5,3.14,3.14,0,0,1,.5-.28l9.48-4.14a2,2,0,0,1,2,3.52Z" transform="translate(-682.29 -317.34)"/><ellipse class="b9d9223d-d408-4664-b60f-ba0e5fb99413" cx="289.71" cy="351.66" rx="24" ry="14"/><path class="b9d9223d-d408-4664-b60f-ba0e5fb99413" d="M926,604c0,28.17-10.75,51-24,51-8.8,0-16.49-10.06-20.67-25.07L903,616l-24.93-16c1-26.29,11.32-47,23.93-47C915.25,553,926,575.83,926,604Z" transform="translate(-682.29 -317.34)"/><path class="b9d9223d-d408-4664-b60f-ba0e5fb99413" d="M1063,604c0,28.17-10.75,51-24,51-8.8,0-16.49-10.06-20.67-25.07L1040,616l-24.93-16c1-26.29,11.32-47,23.93-47C1052.25,553,1063,575.83,1063,604Z" transform="translate(-682.29 -317.34)"/><path class="b8223441-de1c-4f0c-a863-fcebbde5ad26" d="M902,712s63,73,137,0" transform="translate(-682.29 -317.34)"/><path class="e212e5ba-2023-46b6-a9d8-04dbc5e71ee3" d="M799,608c-.55-.52-12.56-11.73-21-8-8.88,3.92-10.54,22.91-2,34,7.73,10,21.06,10,23,10" transform="translate(-682.29 -317.34)"/><path class="b9d9223d-d408-4664-b60f-ba0e5fb99413" d="M796.93,610.17a43.23,43.23,0,0,0-3.86-3.25,37.36,37.36,0,0,0-4.24-2.75c-2.88-1.58-6.06-2.62-8.61-2.13a6.74,6.74,0,0,0-1.79.65,7.9,7.9,0,0,0-1.59,1.23,12.18,12.18,0,0,0-2.43,3.77,24,24,0,0,0-1.71,9.71c.13,6.72,2.46,13.67,7.4,18.18s12,6.75,18.87,6.86h0a1.56,1.56,0,0,1,0,3.12A36.18,36.18,0,0,1,787.71,644a28,28,0,0,1-10.18-5.56,21.81,21.81,0,0,1-2.1-2.09l-1-1.11-.88-1.19a27.29,27.29,0,0,1-2.85-5.15,33.37,33.37,0,0,1-2.57-11.35,28.6,28.6,0,0,1,1.71-11.71,17.2,17.2,0,0,1,3.3-5.45,13.13,13.13,0,0,1,2.66-2.17,12,12,0,0,1,3.28-1.34,14.76,14.76,0,0,1,6.63.15,25.89,25.89,0,0,1,5.72,2.15,40.72,40.72,0,0,1,5,3,46.39,46.39,0,0,1,4.61,3.63,3,3,0,0,1-4,4.46l-.06-.06Z" transform="translate(-682.29 -317.34)"/><path class="e212e5ba-2023-46b6-a9d8-04dbc5e71ee3" d="M1153,627c7-7.73,10.78-8.86,13-8,5.39,2.1,6.94,18.21,0,29-8.28,12.88-25.31,13-27,13" transform="translate(-682.29 -317.34)"/><path class="b9d9223d-d408-4664-b60f-ba0e5fb99413" d="M1150.77,625a44,44,0,0,1,8-6.89,15.39,15.39,0,0,1,2.66-1.35,8.62,8.62,0,0,1,3.48-.62,6.26,6.26,0,0,1,2,.43,9,9,0,0,1,.93.47,9.55,9.55,0,0,1,.8.57,9.26,9.26,0,0,1,2.12,2.65,17.91,17.91,0,0,1,1.76,5.41,29.92,29.92,0,0,1,.38,5.31,35.38,35.38,0,0,1-1.67,10.28,28.31,28.31,0,0,1-4.84,9.24,27.36,27.36,0,0,1-7.86,6.77A35.47,35.47,0,0,1,1149,661a40.78,40.78,0,0,1-10,1.1,1.05,1.05,0,0,1,0-2.1h0a36.34,36.34,0,0,0,17.92-5.32,24.16,24.16,0,0,0,10.41-14.52,31.13,31.13,0,0,0,1-9.09,25,25,0,0,0-.55-4.45,12.86,12.86,0,0,0-1.42-3.82,4.09,4.09,0,0,0-1-1.13,1,1,0,0,0-.73-.22,6.4,6.4,0,0,0-3,1.32,38.8,38.8,0,0,0-6.51,6.29l0,0a3,3,0,0,1-4.54-3.93Z" transform="translate(-682.29 -317.34)"/><g class="e0f291b8-ea98-4efe-93e9-16f5522298a5"><path class="b16ad33d-8c43-4954-9e03-8bd17ee18310" d="M805.13,609.39l-.77-.68.63.2Z" transform="translate(-682.29 -317.34)"/><path class="e212e5ba-2023-46b6-a9d8-04dbc5e71ee3" d="M805.13,609.39l-.77-.68.63.2Z" transform="translate(-682.29 -317.34)"/></g><g class="e0f291b8-ea98-4efe-93e9-16f5522298a5"><path class="b16ad33d-8c43-4954-9e03-8bd17ee18310" d="M957.2,804.75l-2.08.17q-6.42-.7-12.47-1.83l-1.43-.28h0c-67.69-13.35-100.49-66.76-115.56-125.54-.59-2.26-1.14-4.53-1.67-6.81-13.31-57.3-10.6-118.37-7.5-151.68,0,0,37.11,9,72.57-60.16a293.54,293.54,0,0,1,35-10.61c4.54,20.56-5.08,42-17.3,59.4-12.68,18-28.53,34.15-37.21,54.39-11.52,26.87-9,57.46-5.27,86.45,4.09,32,9.51,64.28,23.66,93.21S926.25,795.86,957.2,804.75Z" transform="translate(-682.29 -317.34)"/><path class="e212e5ba-2023-46b6-a9d8-04dbc5e71ee3" d="M957.2,804.75l-2.08.17q-6.42-.7-12.47-1.83l-1.43-.28h0c-67.69-13.35-100.49-66.76-115.56-125.54-.59-2.26-1.14-4.53-1.67-6.81-13.31-57.3-10.6-118.37-7.5-151.68,0,0,37.11,9,72.57-60.16a293.54,293.54,0,0,1,35-10.61c4.54,20.56-5.08,42-17.3,59.4-12.68,18-28.53,34.15-37.21,54.39-11.52,26.87-9,57.46-5.27,86.45,4.09,32,9.51,64.28,23.66,93.21S926.25,795.86,957.2,804.75Z" transform="translate(-682.29 -317.34)"/></g><path class="a39a82c8-1ad2-47d2-8e5a-4c555a4f2dae" d="M1149.5,610.5s-11.47,21.64-27.23,66.78c11.15-44.23,14.18-103.6,2.73-183.28,0,0-89.61-89.61-236-35.38-35.46,69.13-72.57,60.16-72.57,60.16-2.13,22.89-4.08,58.9-.76,97.79.06.74.12,1.48.19,2.22,0,0,0,.06,0,.1.51,5.65,1.13,11.37,1.88,17.1,1.51,11.48,3.53,23,6.18,34.47.53,2.28,1.08,4.55,1.67,6.81v.05l-11.13-36.87-9-29.86-.36-1.2-.14-.48L779.5,524.5s-32,14-53,0c0,0,35,5,44-59,0,0-1-20,22-35-1.2.2-50.18,8.65-66-19,0,0,14,14,32,0s92-72,191-88,196,30,194,110C1143.5,433.5,1258.5,453.5,1149.5,610.5Z" transform="translate(-682.29 -317.34)"/><g class="e0f291b8-ea98-4efe-93e9-16f5522298a5"><path class="b16ad33d-8c43-4954-9e03-8bd17ee18310" d="M779.63,996.87l-4.39-4-41.68-38.14L723.5,945.5l37.64-32.81.48.26,3.13,3.23c-11.92,8.14-17.79,24.18-14,38.09,4,14.36,16.33,24.47,25.57,36.14C777.87,992.33,779.37,994.5,779.63,996.87Z" transform="translate(-682.29 -317.34)"/><path class="e212e5ba-2023-46b6-a9d8-04dbc5e71ee3" d="M779.63,996.87l-4.39-4-41.68-38.14L723.5,945.5l37.64-32.81.48.26,3.13,3.23c-11.92,8.14-17.79,24.18-14,38.09,4,14.36,16.33,24.47,25.57,36.14C777.87,992.33,779.37,994.5,779.63,996.87Z" transform="translate(-682.29 -317.34)"/></g><g class="e0f291b8-ea98-4efe-93e9-16f5522298a5"><path class="b16ad33d-8c43-4954-9e03-8bd17ee18310" d="M1230.05,727.61l-1.19,2.52c-22.91,17.62-36.16,46.82-35.22,75.61l-16.37-35.15-3.77-8.09,56-36Z" transform="translate(-682.29 -317.34)"/><path class="e212e5ba-2023-46b6-a9d8-04dbc5e71ee3" d="M1230.05,727.61l-1.19,2.52c-22.91,17.62-36.16,46.82-35.22,75.61l-16.37-35.15-3.77-8.09,56-36Z" transform="translate(-682.29 -317.34)"/></g></g></g></svg>