<svg xmlns="http://www.w3.org/2000/svg" viewBox="0 0 1957 1402.92"><defs><style>.f5977269-6b1a-4ae2-8456-24c674c0c279{isolation:isolate;}.f2ce7805-8897-4171-82de-5d0e456c4733{fill:#fccddc;}.a9b82eb3-e5d3-491b-aa6d-f77cf6653a33{fill:#fff;}.ac6e2b9e-60eb-471b-a738-eeefea72acfd{fill:#eabc2a;}.edaee2ce-1397-4ab4-a422-b216b9bfb1fe{mix-blend-mode:soft-light;}.b3338bbb-b0ac-4599-be85-f5f2d33b3a71{fill:#52b7ef;}.e09bd190-9d3a-4f1f-8e8d-ca9acbc4fceb{fill:#d882d8;}.f69dab3a-bc41-4bd8-861f-8d6d54135e48{fill:#ffff0d;}</style></defs><title>donut</title><g class="f5977269-6b1a-4ae2-8456-24c674c0c279"><g id="b199ac8f-96f0-47a6-a663-4b5ce211ae77" data-name="Layer 1"><ellipse cx="784.02" cy="1276.94" rx="716.75" ry="117.42"/><path class="f2ce7805-8897-4171-82de-5d0e456c4733" d="M1782.07,845.37c-72.16-67-107.63,29.36-91.56,172.19,14.14,125.69,63.43,347.42-108.76,434.58-193.86,98.12-71.21-190.91-379.44-68.59-955,379-502.72-159.89-797.47-139.44-218.52,15.14-281.47-207-349.74-371.66C155.79,567.38,540.26,287.63,999.28,287.63c427.26,0,790.18,242.37,920.69,521.93C1928.12,847.28,1881.76,937.94,1782.07,845.37Z" transform="translate(-22 -280.29)"/><path d="M703.65,1526.23c-43.3,0-77.57-7.2-103.49-21.48-54.88-30.25-65.66-87.66-75.18-138.31-12.78-68-22.87-121.73-119.63-115-90.21,6.22-162.55-26.23-221.18-99.3C133.52,1089,100.73,1006.46,69,926.65c-7.11-17.88-13.82-34.76-20.71-51.39a7.37,7.37,0,0,1-.19-5.11c25.35-76.8,68-151.65,126.78-222.47s130.65-134,213.9-188.19c86.09-56,180.74-99.89,281.32-130.41a1133.2,1133.2,0,0,1,329.15-48.79c203.74,0,402.7,54.35,575.38,157.16,160.49,95.56,285.48,226.61,352,369a7.15,7.15,0,0,1,.52,1.56c5.16,23.87-8.33,61.41-35.93,77.12-21.8,12.41-59.31,16.53-114.13-34.38h0c-19.28-17.91-35.55-23.72-48.35-17.26-29.18,14.72-41.6,88.36-30.92,183.25,1.4,12.49,3.15,25.94,5,40.17,16.68,127.82,41.88,321-117.75,401.78-92.85,47-119.06,8.52-146.8-32.21-32.33-47.49-69-101.3-233.25-36.11C975.15,1481.59,811.44,1526.23,703.65,1526.23Zm-283.12-290c94.92,0,107.08,64.78,118.87,127.52,9.36,49.79,19,101.27,67.85,128.17,39.58,21.81,100.24,25.55,185.46,11.45,101.44-16.8,234.54-58.22,406.9-126.61,175.19-69.53,217.11-8,250.79,41.49,27.1,39.79,46.68,68.55,128,27.37,66.24-33.53,104.63-90.12,117.36-173,11-71.69.73-150.47-7.53-213.78-1.87-14.3-3.63-27.81-5-40.43-11.72-104.11,3.19-180,38.9-198,13-6.54,34.74-8.45,65,19.6,38.23,35.51,71.74,46.7,96.88,32.39,22.86-13,32.16-43.65,29-60.51-65.34-139.44-188.11-267.91-345.8-361.8C1396.74,348.6,1200.38,295,999.28,295a1118.26,1118.26,0,0,0-324.89,48.16c-99.26,30.11-192.65,73.4-277.57,128.66-82,53.37-152.87,115.7-210.62,185.27-56.93,68.6-98.4,141-123.27,215.11,6.56,15.91,13,32,19.73,49.06,61.23,154.12,130.64,328.87,321.67,315.56Q412.81,1236.21,420.53,1236.2Z" transform="translate(-22 -280.29)"/><path class="a9b82eb3-e5d3-491b-aa6d-f77cf6653a33" d="M363.65,612a15.9,15.9,0,0,1-10.56-27.79A900.07,900.07,0,0,1,482.62,488.8,15.9,15.9,0,1,1,499.15,516a867.72,867.72,0,0,0-124.94,92A15.85,15.85,0,0,1,363.65,612Z" transform="translate(-22 -280.29)"/><path class="a9b82eb3-e5d3-491b-aa6d-f77cf6653a33" d="M283.66,694a15.91,15.91,0,0,1-12.19-26.11c7.61-9.09,15.6-18.18,23.76-27a15.9,15.9,0,1,1,23.38,21.55c-7.81,8.48-15.47,17.19-22.76,25.89A15.84,15.84,0,0,1,283.66,694Z" transform="translate(-22 -280.29)"/><path class="a9b82eb3-e5d3-491b-aa6d-f77cf6653a33" d="M211.63,798.51a15.9,15.9,0,0,1-13.92-23.57c4.31-7.82,8.88-15.71,13.6-23.45,5.15-8.46,10.63-17,16.26-25.35a15.9,15.9,0,0,1,26.37,17.78c-5.37,8-10.57,16.06-15.47,24.12-4.48,7.34-8.81,14.82-12.9,22.24A15.89,15.89,0,0,1,211.63,798.51Z" transform="translate(-22 -280.29)"/><path class="ac6e2b9e-60eb-471b-a738-eeefea72acfd" d="M1971.66,1027.62c1.22,439.1-434.8,648.25-971.16,648.25S30.56,1466.72,29.34,1027.62C29.19,976,38.1,923.87,55.1,872.45c68.27,164.68,156.49,322.73,423.13,239.56,296.8-92.58,354.7,428.1,616.45,149.22,237.38-252.9,322.9,139.44,486.8,117.42,111.93-15,123.17-235.4,109-361.09-16.07-142.83,19.4-239.22,91.56-172.19,99.69,92.57,146,1.91,137.9-35.81C1953.29,881,1971.46,954.79,1971.66,1027.62Z" transform="translate(-22 -280.29)"/><path d="M1000.5,1683.21c-279.39,0-518-55.51-690.08-160.54C219.21,1467,148.38,1398.12,99.89,1318,48.51,1233,22.3,1135.3,22,1027.64,21.86,976,30.65,923,48.13,870.15a7.34,7.34,0,0,1,13.75-.51c38.5,92.87,76.18,164.08,134.9,209.74,69.62,54.14,161,62.53,279.26,25.63,140.64-43.87,229.64,46.15,308.16,125.58,54,54.68,105.13,106.34,165.33,106.34h1.36c42.7-.55,88-27,138.44-80.71,54.78-58.36,105.35-87,154.59-87.58h1.52c68.92,0,122.82,54.81,175,107.84,52,52.88,101.12,102.86,160.1,94.92,57.82-7.77,83.89-76.76,95.58-133.26,19.14-92.56,10.3-191.59,7.13-219.74-11.72-104.11,3.19-180,38.9-198,13-6.54,34.74-8.45,65,19.6,38.23,35.51,71.74,46.7,96.88,32.39,23.21-13.22,32.45-44.6,28.85-61.27a7.34,7.34,0,0,1,13.82-4.65c34.56,74.06,52.18,148.46,52.38,221.14h0c.43,155.83-53.17,288.81-159.3,395.25C1652.27,1590.75,1361.34,1683.21,1000.5,1683.21ZM56.13,893.88c-13,45-19.58,89.89-19.45,133.72.29,105,25.79,200.1,75.77,282.75,47.26,78.14,116.43,145.36,205.62,199.79,169.76,103.62,405.74,158.39,682.43,158.39,173,0,330.31-21.38,467.5-63.56,142.92-43.94,257.75-108.7,341.3-192.49,103.29-103.57,155.44-233,155-384.84h0c-.16-61.77-13.35-124.92-39.23-188.1-5.23,17.94-16.88,35.91-33.88,45.59-21.8,12.42-59.3,16.53-114.13-34.38-19.28-17.91-35.55-23.72-48.35-17.26-29.18,14.72-41.6,88.36-30.92,183.25,8.61,76.59,5.86,160.46-7.35,224.35-18.14,87.7-55.49,137.78-108,144.84a107,107,0,0,1-14.19,1c-59.85,0-109.85-50.84-158.33-100.13-50-50.87-101.74-103.45-164.53-103.45h-1.32c-45,.53-92.16,27.66-144.06,83-53.33,56.83-102,84.74-148.95,85.35h-1.59c-66.29,0-119.46-53.78-175.72-110.7-79.28-80.18-161.25-163.1-293.36-121.89-123.22,38.43-218.94,29.26-292.64-28C125.13,1042.26,86.62,965.48,56.13,893.88Z" transform="translate(-22 -280.29)"/><g class="edaee2ce-1397-4ab4-a422-b216b9bfb1fe"><path d="M690.56,1650c-384-68.13-660.24-272.07-661.22-622.42C29.19,976,38.1,923.87,55.1,872.45,104,990.31,216.94,1035.86,357.36,1046.67A412.4,412.4,0,0,0,340,1169.5C342.36,1366.57,664.19,1628.88,690.56,1650Z" transform="translate(-22 -280.29)"/></g><path d="M996.07,775.37A454.15,454.15,0,0,1,904.22,766c-81.8-16.91-132-50.14-134.09-51.54a7.34,7.34,0,0,1,8.18-12.2h0c.49.34,50.34,33.25,129.52,49.5,72.87,15,186.33,18.45,313-49.86a7.34,7.34,0,0,1,7,12.92C1142.12,761.05,1062.2,775.37,996.07,775.37Z" transform="translate(-22 -280.29)"/><path d="M947.91,674.13a7.33,7.33,0,0,1-7.34-7.33V617.87a7.34,7.34,0,1,1,14.67,0V666.8A7.33,7.33,0,0,1,947.91,674.13Z" transform="translate(-22 -280.29)"/><path d="M1055.54,674.13a7.34,7.34,0,0,1-7.34-7.33V617.87a7.34,7.34,0,0,1,14.68,0V666.8A7.34,7.34,0,0,1,1055.54,674.13Z" transform="translate(-22 -280.29)"/><rect class="b3338bbb-b0ac-4599-be85-f5f2d33b3a71" x="568.74" y="1006.82" width="56.26" height="249.52" rx="11.5" transform="translate(-507.83 169.75) rotate(-30)"/><path d="M645.24,1250.73A35.5,35.5,0,0,1,614.46,1233l-96.62-167.36a35.47,35.47,0,1,1,61.44-35.47l96.62,167.36a35.46,35.46,0,0,1-30.66,53.2Zm-96.72-223.62a20.79,20.79,0,0,0-18,31.19l96.63,167.36a20.79,20.79,0,1,0,36-20.79L566.56,1037.5A20.8,20.8,0,0,0,548.52,1027.11Z" transform="translate(-22 -280.29)"/><rect class="b3338bbb-b0ac-4599-be85-f5f2d33b3a71" x="1368.66" y="412.39" width="56.26" height="249.52" rx="11.5" transform="translate(247.79 -727.73) rotate(20.11)"/><path d="M1363.59,663.37a35.5,35.5,0,0,1-33.33-47.68l66.44-181.48a35.47,35.47,0,1,1,66.62,24.39l-66.44,181.48a35.53,35.53,0,0,1-33.29,23.29ZM1430,425.6a20.88,20.88,0,0,0-19.52,13.66l-66.43,181.47a20.79,20.79,0,0,0,12.38,26.68h0A20.81,20.81,0,0,0,1383.1,635l66.43-181.47a20.8,20.8,0,0,0-12.37-26.68A20.89,20.89,0,0,0,1430,425.6Z" transform="translate(-22 -280.29)"/><rect class="e09bd190-9d3a-4f1f-8e8d-ca9acbc4fceb" x="1468.96" y="833.14" width="56.26" height="249.52" rx="11.5" transform="translate(76.12 -418.62) rotate(5.47)"/><path d="M1487.94,1089.56c-1.14,0-2.29-.06-3.44-.17a35.51,35.51,0,0,1-31.93-38.68L1471,858.33a35.47,35.47,0,0,1,70.62,6.76l-18.42,192.38a35.5,35.5,0,0,1-35.25,32.09Zm18.32-248.64a20.8,20.8,0,0,0-20.66,18.81l-18.42,192.37a20.81,20.81,0,0,0,18.72,22.68,20.8,20.8,0,0,0,22.68-18.71L1527,863.69A20.83,20.83,0,0,0,1508.28,841C1507.61,841,1506.93,840.92,1506.26,840.92Z" transform="translate(-22 -280.29)"/><rect class="b3338bbb-b0ac-4599-be85-f5f2d33b3a71" x="554.06" y="527.36" width="56.26" height="249.52" rx="11.5" transform="matrix(0.87, 0.5, -0.5, 0.87, 382.06, -484.02)"/><path d="M533.82,771.26a35.24,35.24,0,0,1-17.68-4.74h0a35.52,35.52,0,0,1-13-48.46L599.79,550.7a35.47,35.47,0,1,1,61.43,35.47L564.6,753.54A35.5,35.5,0,0,1,533.82,771.26Zm-10.34-17.45a20.83,20.83,0,0,0,28.41-7.61l96.62-167.37a20.79,20.79,0,0,0-36-20.79L515.87,725.4a20.82,20.82,0,0,0,7.61,28.41Z" transform="translate(-22 -280.29)"/><rect class="f69dab3a-bc41-4bd8-861f-8d6d54135e48" x="1280.59" y="696.15" width="56.26" height="249.52" rx="11.5" transform="translate(836.88 2018.56) rotate(-105.17)"/><path d="M1215.41,881.68a35.48,35.48,0,0,1-9.23-69.72l186.52-50.57a35.47,35.47,0,1,1,18.57,68.47l-186.52,50.57A35.54,35.54,0,0,1,1215.41,881.68ZM1402,774.82a20.84,20.84,0,0,0-5.47.74L1210,826.13a20.79,20.79,0,1,0,10.88,40.13l186.52-50.57a20.82,20.82,0,0,0,14.62-25.51h0a20.83,20.83,0,0,0-20-15.36Z" transform="translate(-22 -280.29)"/><rect class="e09bd190-9d3a-4f1f-8e8d-ca9acbc4fceb" x="823.15" y="833.14" width="56.26" height="249.52" rx="11.5" transform="translate(2108.56 753) rotate(135)"/><path d="M919.6,1061.68a35.39,35.39,0,0,1-25.08-10.37L757.87,914.66A35.47,35.47,0,0,1,808,864.49l136.66,136.65a35.46,35.46,0,0,1-25.09,60.54ZM783,868.78a20.8,20.8,0,0,0-14.7,35.5L904.9,1040.93a20.8,20.8,0,0,0,29.41-29.41L797.66,874.87A20.66,20.66,0,0,0,783,868.78Z" transform="translate(-22 -280.29)"/><rect class="e09bd190-9d3a-4f1f-8e8d-ca9acbc4fceb" x="1158.28" y="275.4" width="56.26" height="249.52" rx="11.5" transform="translate(224.66 947.25) rotate(-60)"/><path d="M1270,483.93a35.31,35.31,0,0,1-17.68-4.74L1085,382.56a35.47,35.47,0,0,1,35.47-61.44l167.36,96.63A35.47,35.47,0,0,1,1270,483.93ZM1102.77,331.05a20.79,20.79,0,0,0-10.43,38.8l167.36,96.63a20.79,20.79,0,0,0,20.79-36l-167.36-96.63A20.74,20.74,0,0,0,1102.77,331.05Z" transform="translate(-22 -280.29)"/><rect class="f69dab3a-bc41-4bd8-861f-8d6d54135e48" x="277.63" y="796.45" width="56.26" height="249.52" rx="11.5" transform="translate(858.17 -141.5) rotate(54.65)"/><path d="M227,1012.6a36,36,0,0,1-6-.51,35.22,35.22,0,0,1-23-14.45h0a35.47,35.47,0,0,1,8.4-49.45L364.05,836.37a35.47,35.47,0,0,1,41.05,57.85L247.48,1006.05A35.22,35.22,0,0,1,227,1012.6Zm157.5-168.1a20.61,20.61,0,0,0-12,3.84L214.93,960.16a20.79,20.79,0,0,0-4.93,29h0a20.8,20.8,0,0,0,29,4.92L396.61,882.25a20.79,20.79,0,0,0-8.55-37.45A21.12,21.12,0,0,0,384.53,844.5Z" transform="translate(-22 -280.29)"/><rect class="f69dab3a-bc41-4bd8-861f-8d6d54135e48" x="1642.64" y="539.59" width="56.26" height="249.52" rx="11.5" transform="translate(-130.33 644.1) rotate(-30)"/><path d="M1719.14,783.49a35.49,35.49,0,0,1-30.77-17.72L1591.74,598.4a35.47,35.47,0,0,1,61.43-35.47L1749.8,730.3a35.51,35.51,0,0,1-13,48.45h0A35.21,35.21,0,0,1,1719.14,783.49Zm14-11.1h0ZM1622.42,559.88a20.79,20.79,0,0,0-18,31.19l96.63,167.36a20.79,20.79,0,1,0,36-20.8l-96.63-167.36A20.8,20.8,0,0,0,1622.42,559.88Z" transform="translate(-22 -280.29)"/><g class="edaee2ce-1397-4ab4-a422-b216b9bfb1fe"><path class="a9b82eb3-e5d3-491b-aa6d-f77cf6653a33" d="M1546,429.36c-153.74-78.91-341.47-100.15-544.29-100.15-225.25,0-432.32,31.9-595,127.53,163.88-103,369.41-169.11,592.56-169.11C1202,287.63,1390.21,342.18,1546,429.36Z" transform="translate(-22 -280.29)"/></g><g class="edaee2ce-1397-4ab4-a422-b216b9bfb1fe"><path class="a9b82eb3-e5d3-491b-aa6d-f77cf6653a33" d="M478.2,1594.19c-269.48-98-448.08-285-448.86-566.57C29.19,976,74.79,833.36,91.79,781.94c3.21,7.73-3.86-7.29-.07-.17C84.77,816.24,55,943.22,55,1000.71,55,1248.46,223.16,1466.69,478.2,1594.19Z" transform="translate(-22 -280.29)"/></g><g class="edaee2ce-1397-4ab4-a422-b216b9bfb1fe"><path class="a9b82eb3-e5d3-491b-aa6d-f77cf6653a33" d="M1971.66,1027.62c.78,282.29-179.14,469.55-450.28,567.26,255.83-127.38,424.59-346,424.59-594.17a539.14,539.14,0,0,0-26.71-167.91c1.88-8.51,2.13-16.69.71-23.24C1953.29,881,1971.46,954.79,1971.66,1027.62Z" transform="translate(-22 -280.29)"/></g><g class="edaee2ce-1397-4ab4-a422-b216b9bfb1fe"><path d="M491.68,831.92s-94.47,81-134.32,214.75C216.94,1035.86,104,990.31,55.1,872.45c47.11-142.74,156.36-280,306.32-385.55C337,506,180.23,635,384.05,650.9,604.21,668,491.68,831.92,491.68,831.92Z" transform="translate(-22 -280.29)"/></g></g></g></svg>