<svg id="f88b90f2-d4c2-4caf-9b57-06c6d453ae73" data-name="Layer 1" xmlns="http://www.w3.org/2000/svg" viewBox="0 0 1878 916"><defs><style>.bdc1da34-f181-4518-b179-293872fdaf00{fill:none;stroke:#111626;stroke-miterlimit:10;stroke-width:20px;}</style></defs><title>dsd</title><path d="M385.53,930.14c0-3.35,1.58-5.32,6.11-6.7,8.28-2.76,9.26-6.11,9.26-13.8V820.56c0-7.68-1.38-11.23-9.66-14-4.33-1.38-5.91-3.55-5.91-6.7.2-4.73,3.55-6.31,7.29-6.31l8.48.2h46.12c44.93,0,76.66,28.38,76.66,71,0,41-30,71.73-69.37,71.73H392.62C389.08,936.44,385.53,934.87,385.53,930.14Zm60.11-9.46c33.9,0,54.59-19.71,54.59-51.83,0-33.31-24.64-59.32-57.55-59.32H431.45c-6.31,0-8.28,2.16-8.28,10.24v84C423.17,919.1,426.13,920.68,445.64,920.68Z" transform="translate(-61 -542)"/><path d="M532.15,902.94c0-20.69,19.32-36.46,42.18-36.46,8.87,0,17.14,2.37,20.69,2.37,2,0,2.56-1,2.56-2.76,0-11-8.47-20.89-21.68-20.89-9.85,0-20.1,5.12-30.54,12.81-3.94,2.56-6.7,2-8.87-2-5.32-10.25-4.53-15.57,2.76-19.12,9.06-4.34,25-7.49,37-7.49,27.2,0,38.82,12.81,44.34,40.2l6.9,35.08c2.17,10.65,5.52,16.17,11.23,20.7,2.37,1.58,3.35,3.35,3.35,5.52,0,3.35-3.74,6.3-10.64,6.5-10.44,0-15.17-4.73-19.12-9.66-1-1.18-1.77-2-3.15-2-1.58,0-2.76.79-5.12,2.56-8.28,6.31-22.08,10.06-33.11,10.06C548.12,938.42,532.15,923.83,532.15,902.94Zm44.94,19.71c19.7,0,30.35-8.67,28.38-18.13l-2.37-11c-1.77-8.87-4.14-12-22.66-12-16.56,0-26.21,9.26-26.21,20.3C554.23,913,563.69,922.65,577.09,922.65Z" transform="translate(-61 -542)"/><path d="M650.4,915.75c0-7.68,1-18.52,2.36-30.94,1.38-12.61,2.76-25.23,2.76-33.9,0-4.53-1-4.33-18.13-3.55-5.32.2-6.5-1.57-6.5-6.1,0-2.37,1.38-4,3.94-4.93,7.68-3,12.22-5.52,16.36-9.07,4.73-3.94,7.88-8.87,11.43-16,1.57-3.35,3.15-4.34,6.11-4.34,3.54,0,4.92,1.78,4.73,5.92l-.6,14.19c-.19,4.33.79,4.53,5.92,4.53H690c4.93,0,6.31,1.77,6.31,8.28,0,5.32-2,6.5-6.9,6.5H679.17c-5.52,0-6.11.2-6.11,5.71,0,23.85-.79,44.35-.79,58.54,0,8.27,2.56,9.85,16.16,12.41,7.3,1.58,10.45,2.57,10.45,7.3,0,4.53-2.76,6.1-7.49,6.1H668.13C655.52,936.25,650.4,929.55,650.4,915.75Z" transform="translate(-61 -542)"/><path d="M702.22,902.94c0-20.69,19.32-36.46,42.18-36.46,8.87,0,17.14,2.37,20.69,2.37,2,0,2.56-1,2.56-2.76,0-11-8.47-20.89-21.68-20.89-9.85,0-20.1,5.12-30.54,12.81-3.94,2.56-6.7,2-8.87-2-5.32-10.25-4.53-15.57,2.76-19.12,9.06-4.34,25-7.49,37-7.49,27.2,0,38.82,12.81,44.34,40.2l6.9,35.08c2.17,10.65,5.52,16.17,11.23,20.7,2.37,1.58,3.35,3.35,3.35,5.52,0,3.35-3.74,6.3-10.64,6.5-10.44,0-15.17-4.73-19.12-9.66-1-1.18-1.77-2-3.15-2-1.58,0-2.76.79-5.12,2.56-8.28,6.31-22.08,10.06-33.11,10.06C718.19,938.42,702.22,923.83,702.22,902.94Zm44.94,19.71c19.71,0,30.35-8.67,28.38-18.13l-2.37-11c-1.77-8.87-4.14-12-22.66-12-16.56,0-26.21,9.26-26.21,20.3C724.3,913,733.76,922.65,747.16,922.65Z" transform="translate(-61 -542)"/><path d="M860.47,918.71c-7.49-7.49-6.3-12,1.58-20.1,3.74-3.55,6.11-4.73,8.08-4.73s3.74,1.38,5.91,4.33c9.66,14.78,24.64,26,42,26,16.36,0,28.58-10.25,28.58-23.46,0-14.38-10.45-22.07-36.07-26-36.85-5.72-51.24-18.53-51.24-40.4,0-24.05,23.45-43.36,53.41-43.36,19.9,0,37.84,7.69,49.66,20.89,6.51,6.9,6.51,10.64,0,17.54-3.15,3.15-6.11,5.52-9.06,5.52-2,0-4.34-1.58-6.51-4.73-9.85-15.37-23.06-23.65-37.84-23.65-15.76,0-27.39,9.85-27.39,22.27,0,13.2,10.05,19.71,35.67,24C953.69,859,968.87,871.8,968.87,896c0,25.23-24.84,43.56-54.2,43.56C892.4,939.6,872.3,931.72,860.47,918.71Z" transform="translate(-61 -542)"/><path d="M978.52,883.43c0-32.71,27-54.79,54.59-54.79a56,56,0,0,1,42,18.72c5.52,6.31,5.12,11.44-.59,17.35-4.14,4.14-6.71,6.7-9.27,6.5-2.36,0-3.94-1.58-5.52-4.33-9.85-15.77-19.31-22.47-30.94-22.47-16.35,0-28.18,14.78-28.18,32.91,0,23.65,17.74,43.16,36.46,43.16,12,0,21.09-4.93,29.17-14.19,3.74-3.74,5.52-4.14,10,0,3.55,3,3,5.52.39,9.66a52.25,52.25,0,0,1-43.55,23.45C1002.76,939.4,978.52,914.77,978.52,883.43Z" transform="translate(-61 -542)"/><path d="M1088.88,831.6h20.89c4.14,0,6.7,2.76,6.7,8.47v70.75c-.2,7.69,1.18,11,7.29,13.21,4.73,1.77,6.31,3.74,6.31,6.5,0,4.34-3.55,5.91-7.49,5.91h-32.91c-3.55,0-6.9-1.57-6.9-5.71,0-3,1.58-4.93,5.91-6.5,5.52-2.17,6.7-5.33,6.7-13V857c0-7.68-1.18-11-7.49-13.4-4.33-1.58-5.71-3.55-5.51-6.5C1082.38,833,1085.53,831.6,1088.88,831.6Zm-3.35-18.72c0-9.07,6.7-16.56,15.77-16.56s16,7.49,16,16.56c0,3.94-2.37,6.3-6.31,6.3h-19.11A5.89,5.89,0,0,1,1085.53,812.88Z" transform="translate(-61 -542)"/><path d="M1128.49,885.2c-.59-32.12,25.42-56,53.61-56,26.4,0,47.49,19.12,47.49,40.8,0,7.49-4.14,13-11,15-6.9,1.77-13.6,2.56-20.3,3.94a76,76,0,0,0-33.7,13.79c-1.78,1.58-3,2.57-3,4,0,1.57,1,2.95,2.56,4.33a31.93,31.93,0,0,0,23.45,10.05c12.22,0,20.89-4.53,32.13-16.55,3-3.16,5.52-3.35,8.28-1,3.94,3.35,4.33,6.31,1.18,11-9.86,16-28.78,24.24-45.92,24.24C1155.29,938.81,1128.69,917.72,1128.49,885.2Zm25.23,7.69c1,0,2-.59,3.54-2,9.46-7.49,23.65-14,39.81-17.34,6.51-1.38,9.27-3.75,9.27-7.69,0-9.07-11.83-21.09-27-21.09-16.16,0-29.76,14.39-29.76,34.49C1149.58,888.16,1151,892.89,1153.72,892.89Z" transform="translate(-61 -542)"/><path d="M1232.74,930.73c0-3,1.38-4.93,5.72-6.5,5.52-2.17,6.9-5.33,6.7-13V857c.2-7.68-1.18-11-7.49-13.4-4.33-1.58-5.52-3.55-5.52-6.5,0-4.14,3.16-5.52,6.7-5.52h21.09c3.55,0,5.32,2.36,6.31,5.52.59,2.56,1.38,3.94,2.36,3.94.79,0,1.38-.59,2.56-1.58a41.3,41.3,0,0,1,27.6-10.44c24.24,0,37.64,13.59,37.64,39.22v43c0,7.68,1.18,10.84,6.7,13,4.33,1.57,5.91,3.54,5.91,6.5,0,4.14-3.35,5.71-6.9,5.71h-33.5c-4.14,0-7.88-1.57-7.88-5.91,0-2.95,1.77-4.92,6.7-6.7,6.3-2.17,7.68-5.52,7.68-13.4l.2-39.22c0-16-7.49-25-23.06-25-16,0-25.82,9.66-25.82,26.41v37.84c-.19,7.88,1.19,11.23,7.3,13.4,4.92,1.78,6.5,3.75,6.5,6.7,0,4.34-3.55,5.91-7.49,5.91h-33.31C1235.9,936.44,1232.74,934.87,1232.74,930.73Z" transform="translate(-61 -542)"/><path d="M1358.48,915.75c0-7.68,1.38-18.52,2.76-30.94,1.38-12.61,3.15-25.62,3.15-34.09,0-5.33-1.18-5.92-13.21-4.93-5.51.39-6.89-1.58-6.89-5.13,0-2.56,1.38-3.94,4.14-5.51,5.51-3.16,9.26-5.92,12.22-9.07,3.54-3.55,6.7-8.28,9.85-14.78,1.38-3.35,3.15-4.34,5.91-4.34,3.55,0,5.13,1.78,4.93,5.92l-.4,14.19c0,4.33.79,4.53,5.92,4.53h11.23c4.93,0,6.31,1.77,6.31,8.28,0,5.32-2,6.5-6.9,6.5h-10.45c-5.51,0-5.91.2-5.91,5.71-.2,23.85-1,44.35-1,58.54,0,8.27,2.75,9.85,16.35,12.41,7.3,1.58,10.45,2.57,10.45,7.3,0,4.53-2.76,6.1-7.49,6.1h-23.26C1363.4,936.25,1358.48,929.55,1358.48,915.75Z" transform="translate(-61 -542)"/><path d="M1420.16,831.6h20.89c4.14,0,6.7,2.76,6.7,8.47v70.75c-.2,7.69,1.18,11,7.29,13.21,4.73,1.77,6.31,3.74,6.31,6.5,0,4.34-3.55,5.91-7.49,5.91H1421c-3.55,0-6.9-1.57-6.9-5.71,0-3,1.58-4.93,5.91-6.5,5.52-2.17,6.7-5.33,6.7-13V857c0-7.68-1.18-11-7.49-13.4-4.33-1.58-5.71-3.55-5.52-6.5C1413.65,833,1416.81,831.6,1420.16,831.6Zm-3.35-18.72c0-9.07,6.7-16.56,15.76-16.56s16,7.49,16,16.56c0,3.94-2.37,6.3-6.31,6.3h-19.12A5.89,5.89,0,0,1,1416.81,812.88Z" transform="translate(-61 -542)"/><path d="M1468.64,925c-6.11-6.11-5.52-12.21.19-18.92,2-2,4-3.74,6.11-3.74,2.57,0,4.34,2.36,7.49,6.11,9.26,11.23,19.32,16.95,30.35,16.95,11.24,0,19.12-6.11,19.12-14.19s-6.31-14.19-27.59-18.53c-27.4-5.51-37.45-14.78-37.45-31.14,0-17.73,17.54-32.91,41.59-32.91,14.78,0,30.35,5.91,37.44,14.19,4.93,5.32,3.75,10.64-1.18,16.75-2.17,2.17-3.75,3.35-5.32,3.35-1.78,0-3.55-1.77-7.29-5.51-8.28-9.86-16.56-14.59-27.2-14.59-9.85,0-17.94,6.11-17.94,14.19,0,7.88,6.51,12.22,28,16.75,26.41,5.32,37,15.38,37,33.31,0,18.92-18.33,32.32-42.76,32.32C1493.27,939.2,1476.32,932.5,1468.64,925Z" transform="translate(-61 -542)"/><path d="M1566.78,915.75c0-7.68,1.38-18.52,2.76-30.94,1.38-12.61,3.15-25.62,3.15-34.09,0-5.33-1.18-5.92-13.2-4.93-5.52.39-6.9-1.58-6.9-5.13,0-2.56,1.38-3.94,4.14-5.51,5.51-3.16,9.26-5.92,12.22-9.07,3.54-3.55,6.7-8.28,9.85-14.78,1.38-3.35,3.15-4.34,5.91-4.34,3.55,0,5.13,1.78,4.93,5.92l-.4,14.19c0,4.33.79,4.53,5.92,4.53h11.23c4.93,0,6.31,1.77,6.31,8.28,0,5.32-2,6.5-6.9,6.5h-10.45c-5.51,0-5.91.2-5.91,5.71-.2,23.85-1,44.35-1,58.54,0,8.27,2.76,9.85,16.35,12.41,7.3,1.58,10.45,2.57,10.45,7.3,0,4.53-2.76,6.1-7.49,6.1h-23.26C1571.7,936.25,1566.78,929.55,1566.78,915.75Z" transform="translate(-61 -542)"/><path d="M384.74,1131.94c0-15,9.46-28.38,22.67-36.85,4.13-2.76,5.91-3.94,5.91-5.52,0-1.18-.79-2.56-2.17-4.14-6.31-6.7-9.85-15-9.85-23.65,0-20.69,18.92-35.87,43-35.87,16,0,35.28,8.87,46.12,23.46,4.53,6.1,2.76,9.46-3.95,15-4.13,3.35-6.5,4.54-9.06,4.54-2.37,0-4.73-1.58-7.1-5.13-10.24-14.38-18.32-20.69-29.36-20.69-8.87,0-16.56,5.71-16.56,13.79,0,9.66,7.1,17,15.38,24.05,7.49,7.09,20.1,18.92,32.12,31.73,19.12,20.1,33.7,37.25,38.23,42.37a31,31,0,0,0,6.11,5.12c3.95,2.37,5.52,4.73,5.52,7.49,0,3.35-2.17,5.32-6.11,5.32H502.2c-7.69,0-8.28-.78-17.93-11-2.17-2.17-3.16-4.14-5.32-4.14-1.78,0-3.16,1.58-6.51,3.94-12.81,9.26-23.84,12.81-39.22,12.81C403.46,1174.51,384.74,1154.21,384.74,1131.94Zm54.59,25.43a43.29,43.29,0,0,0,26-9.66c3.35-3,2.76-4.53.19-7.88-8.67-10.65-22.07-23.65-35.27-35.87-3-3-5.13-3.35-8.48-.59-8.67,6.89-13.2,16-13.2,25.22C408.59,1141.2,417.06,1157.37,439.33,1157.37Z" transform="translate(-61 -542)"/><path d="M569.4,1166.63c0-3.35,1.57-5.32,6.11-6.7,8.27-2.76,9.26-6.11,9.26-13.8v-89.08c0-7.68-1.38-11.23-9.66-14-4.33-1.38-5.91-3.55-5.91-6.7.2-4.73,3.55-6.31,7.29-6.31l8.48.2h46.11c44.94,0,76.67,28.38,76.67,71,0,41-30,71.73-69.38,71.73H576.49C572.94,1172.93,569.4,1171.36,569.4,1166.63Zm60.11-9.46c33.89,0,54.59-19.71,54.59-51.83,0-33.31-24.64-59.32-57.55-59.32H615.32c-6.31,0-8.28,2.16-8.28,10.24v84C607,1155.59,610,1157.17,629.51,1157.17Z" transform="translate(-61 -542)"/><path d="M717.2,1121.69c-.59-32.12,25.43-56,53.61-56,26.41,0,47.5,19.12,47.5,40.8,0,7.49-4.14,13-11,15-6.9,1.77-13.6,2.56-20.3,3.94a76,76,0,0,0-33.7,13.79c-1.77,1.58-3,2.57-3,4,0,1.57,1,3,2.57,4.33a31.9,31.9,0,0,0,23.45,10c12.22,0,20.89-4.53,32.12-16.55,3-3.16,5.52-3.35,8.28-1,3.94,3.35,4.34,6.31,1.18,11-9.85,16-28.77,24.24-45.92,24.24C744,1175.3,717.4,1154.21,717.2,1121.69Zm25.23,7.69c1,0,2-.59,3.55-2,9.46-7.49,23.65-14,39.81-17.34,6.5-1.38,9.26-3.75,9.26-7.69,0-9.07-11.82-21.09-27-21.09-16.16,0-29.76,14.39-29.76,34.49C738.29,1124.65,739.67,1129.38,742.43,1129.38Z" transform="translate(-61 -542)"/><path d="M873.29,1173.33c-5.32,0-7.69-2.56-10.45-8.28-9.66-19.9-23.65-54.2-30.74-72.72-2.56-6.5-5.13-9.46-9.27-11.63-3.54-1.77-5.12-3.55-5.12-6.11,0-3.94,2.56-6.5,7.88-6.5h36.07c4.93,0,7.29,1.77,7.29,6.11,0,2.56-1.58,4.73-5.71,6.3-8.68,3.35-9.07,6.31-6.7,13.6,3.94,12.42,15,40,21.28,55.18,1.38,3,3.55,2.57,4.73-.19,7.09-16,17.15-44.54,19.71-54.4,2-7.68,1.18-10.84-5.13-13.59-5.12-2-7.09-4.14-7.09-7.3s2.56-5.71,6.7-5.71h30.15c5.52,0,7.69,2.17,7.69,6.11,0,2.76-2,5.12-5.32,6.5-4.73,2.37-7.1,5.91-8.67,11.43-5.92,19.51-20.89,59.72-27.2,73.71-2.56,5.52-4.73,7.49-10,7.49l-5.72-.2C876.44,1173.13,874.86,1173.33,873.29,1173.33Z" transform="translate(-61 -542)"/><path d="M929.85,1121.69c-.59-32.12,25.42-56,53.6-56,26.41,0,47.5,19.12,47.5,40.8,0,7.49-4.14,13-11,15-6.9,1.77-13.6,2.56-20.3,3.94a76,76,0,0,0-33.7,13.79c-1.77,1.58-2.95,2.57-2.95,4,0,1.57,1,3,2.56,4.33a31.93,31.93,0,0,0,23.45,10c12.22,0,20.89-4.53,32.12-16.55,3-3.16,5.52-3.35,8.28-1,3.94,3.35,4.34,6.31,1.18,11-9.85,16-28.77,24.24-45.91,24.24C956.65,1175.3,930,1154.21,929.85,1121.69Zm25.22,7.69c1,0,2-.59,3.55-2,9.46-7.49,23.65-14,39.81-17.34,6.5-1.38,9.26-3.75,9.26-7.69,0-9.07-11.82-21.09-27-21.09-16.16,0-29.76,14.39-29.76,34.49C950.93,1124.65,952.31,1129.38,955.07,1129.38Z" transform="translate(-61 -542)"/><path d="M1034.1,1167.22c0-3,1.58-4.93,5.91-6.5,5.52-2.17,6.9-5.33,6.7-13v-91.84c.2-7.49-1.18-10.84-7.49-13.2-4.33-1.58-5.52-3.55-5.52-6.51,0-4.14,3.16-5.71,6.71-5.52h20.69c4.14,0,6.9,2,6.9,7.89v108.78c-.2,7.69,1.18,11,7.09,13.21,4.73,1.77,6.31,3.74,6.31,6.5,0,4.34-3.35,5.91-7.29,5.91H1041C1037.45,1172.93,1034.1,1171.36,1034.1,1167.22Z" transform="translate(-61 -542)"/><path d="M1079.82,1121.5c0-31.54,23.65-55.58,55-56,30-.4,53.6,23.84,53.6,55.57,0,31.34-23.25,54.79-53,54.79C1104.65,1175.89,1079.82,1152,1079.82,1121.5Zm58.73,38.23c15.77,0,27.79-14.19,27.79-32.71,0-25.23-16.36-45.33-36.07-45.33-16.36,0-28.57,13.6-28.57,31.73C1101.7,1139.63,1118.65,1159.73,1138.55,1159.73Z" transform="translate(-61 -542)"/><path d="M1187.62,1203.29c0-2.76,1.58-4.73,5.91-6.51,5.52-2,6.7-5.32,6.7-13v-90.26c0-7.68-1.18-11-7.48-13.4-4.34-1.58-5.72-3.55-5.52-6.5,0-4.14,3.15-5.52,6.5-5.52h21.88c3.15,0,4.73,2,5.91,5.32.79,2.56,1.58,3.74,3,3.74s1.77-.59,3-1.57c5.91-6.11,16.36-9.86,27-9.86,25.82,0,47.69,19.32,47.69,50.26,0,36.06-23.65,59.71-57.74,59.71a42.64,42.64,0,0,1-15.18-2.76,22.64,22.64,0,0,0-4.33-1c-2,0-3.15,1.58-3.15,4.14v5.32c0,8.47,1.57,12,8.27,14.39,5.52,1.77,7.3,3.94,7.3,7.09,0,4.53-4,6.11-8.48,6.11h-34.29C1191,1209,1187.62,1207.62,1187.62,1203.29Zm59.72-43.76c17.93,0,32.71-14.38,32.71-37.24,0-20.9-13-39.22-31.92-39.22-14.2,0-26.22,11-26.22,24.43l-.19,30.75C1221.72,1154.21,1229.4,1159.53,1247.34,1159.53Z" transform="translate(-61 -542)"/><path d="M1312,1121.69c-.59-32.12,25.43-56,53.61-56,26.41,0,47.5,19.12,47.5,40.8,0,7.49-4.14,13-11,15-6.9,1.77-13.6,2.56-20.3,3.94a76,76,0,0,0-33.7,13.79c-1.77,1.58-3,2.57-3,4,0,1.57,1,3,2.56,4.33a31.94,31.94,0,0,0,23.46,10c12.22,0,20.89-4.53,32.12-16.55,3-3.16,5.52-3.35,8.28-1,3.94,3.35,4.33,6.31,1.18,11-9.85,16-28.77,24.24-45.92,24.24C1338.78,1175.3,1312.17,1154.21,1312,1121.69Zm25.23,7.69c1,0,2-.59,3.55-2,9.46-7.49,23.65-14,39.81-17.34,6.5-1.38,9.26-3.75,9.26-7.69,0-9.07-11.82-21.09-27-21.09-16.16,0-29.76,14.39-29.76,34.49C1333.06,1124.65,1334.44,1129.38,1337.2,1129.38Z" transform="translate(-61 -542)"/><path d="M1416.42,1167.22c0-3,1.58-4.93,5.91-6.5,5.52-2.17,6.71-5.33,6.71-13v-54.2c0-7.68-1.19-11-7.49-13.4-4.34-1.58-5.72-3.55-5.52-6.5,0-4.14,3.15-5.52,6.5-5.52H1444c3.75,0,5.32,2.76,6.31,5.91l.39,1.18c.4,1.38.79,2,1.78,2,1.57,0,2.17-1.38,3.74-3,5.52-4.93,11.24-7.49,17.35-7.49,8.27,0,14.18,5.52,14.18,15.57,0,8.08-3.94,15.57-8.08,15.57-2.36,0-3.94-1.58-6.1-4.93-3-4.34-5.72-6.5-10.45-6.5-7.29,0-13,5.91-13,14v46.12c-.19,8.08,1.58,11.43,8.67,13.59,5.72,1.78,7.69,3.75,7.69,6.9,0,4.34-4.34,5.91-9.07,5.91h-34.09C1419.77,1172.93,1416.42,1171.36,1416.42,1167.22Z" transform="translate(-61 -542)"/><ellipse class="bdc1da34-f181-4518-b179-293872fdaf00" cx="939" cy="458" rx="934" ry="453"/></svg>