<svg id="f8d147c8-4e38-4b60-bc0f-35444c2d9762" data-name="Layer 1" xmlns="http://www.w3.org/2000/svg" viewBox="0 0 1772.45 1958.02"><defs><style>.ffa45d2e-7894-4dea-8bf8-ac05070103ff{fill:none;stroke:#2e6ac0;stroke-width:10px;}.a5e4a0d9-2058-4d5b-9c89-bb283e262ebd,.ffa45d2e-7894-4dea-8bf8-ac05070103ff{stroke-miterlimit:10;}.a5e4a0d9-2058-4d5b-9c89-bb283e262ebd{fill:#f5f6f8;stroke:#4170be;stroke-width:50px;}.a1589698-6c2f-4702-8bb8-970d3f8d02ff{fill:#111626;}</style></defs><title>eye</title><path class="ffa45d2e-7894-4dea-8bf8-ac05070103ff" d="M1022.18,388.64H978.06c-128.22,0-251.78,49.79-346.3,139.56h0C575.88,581.28,532.7,645.9,502,717c-35,81.07-52.5,169.08-52.5,257.89v47.79c0,79.79,14.1,159,42.56,233.15,30.4,79.22,75.67,151.44,136.2,210l2.75,2.66c94.9,91.84,219.92,142.92,349.78,142.92h38.63c129.86,0,254.88-51.08,349.79-142.92l2.74-2.66c63.45-61.39,110.13-137.78,140.67-221.5,26-71.26,38.86-147,38.86-223.14v-45.1c0-78.85-13.78-157.16-41.58-230.56-31.17-82.31-78.16-157.2-141.44-217.31h0C1274,438.43,1150.4,388.64,1022.18,388.64Z" transform="translate(-114.21 -21)"/><path class="a5e4a0d9-2058-4d5b-9c89-bb283e262ebd" d="M1034.33,46h-69C765,46,571.82,123.71,424.09,263.79h0c-87.35,82.82-154.85,183.65-202.81,294.56-54.71,126.5-82.07,263.83-82.07,402.41v74.57c0,124.51,22,248.13,66.52,363.82,47.53,123.61,118.28,236.31,212.89,327.71l4.3,4.15c148.34,143.3,343.75,223,546.73,223H1030c203,0,398.4-79.71,546.74-223l4.29-4.15c99.17-95.8,172.13-215,219.87-345.64,40.64-111.2,60.74-229.31,60.74-348.19V962.65c0-123-21.54-245.23-65-359.78C1748,474.44,1674.51,357.57,1575.6,263.79h0C1427.87,123.71,1234.74,46,1034.33,46Z" transform="translate(-114.21 -21)"/><path class="a5e4a0d9-2058-4d5b-9c89-bb283e262ebd" d="M342.38,1000S576.62,623.1,999,623.1,1655.56,1000,1655.56,1000,1421.32,1376.85,999,1376.85,342.38,1000,342.38,1000Z" transform="translate(-114.21 -21)"/><path class="a5e4a0d9-2058-4d5b-9c89-bb283e262ebd" d="M454.26,1000S648.59,699.65,999,699.65,1543.68,1000,1543.68,1000,1349.35,1300.3,999,1300.3,454.26,1000,454.26,1000Z" transform="translate(-114.21 -21)"/><circle class="a1589698-6c2f-4702-8bb8-970d3f8d02ff" cx="884.76" cy="978.97" r="152.46"/><line class="a5e4a0d9-2058-4d5b-9c89-bb283e262ebd" x1="884.75" y1="602.1" x2="884.75" y2="25"/><line class="a5e4a0d9-2058-4d5b-9c89-bb283e262ebd" x1="1541.35" y1="978.97" x2="1747.45" y2="978.97"/><line class="a5e4a0d9-2058-4d5b-9c89-bb283e262ebd" x1="25" y1="978.97" x2="228.16" y2="978.97"/><path class="a5e4a0d9-2058-4d5b-9c89-bb283e262ebd" d="M999,1391.57" transform="translate(-114.21 -21)"/><line class="a5e4a0d9-2058-4d5b-9c89-bb283e262ebd" x1="884.75" y1="1355.85" x2="884.75" y2="1932.95"/><line class="a5e4a0d9-2058-4d5b-9c89-bb283e262ebd" x1="1037.86" y1="616.82" x2="1258.69" y2="101.55"/><line class="a5e4a0d9-2058-4d5b-9c89-bb283e262ebd" x1="1202.75" y1="678.65" x2="1541.35" y2="331.21"/><line class="a5e4a0d9-2058-4d5b-9c89-bb283e262ebd" x1="1370.57" y1="790.53" x2="1706.23" y2="652.15"/><line class="a5e4a0d9-2058-4d5b-9c89-bb283e262ebd" x1="731.65" y1="616.82" x2="510.82" y2="101.55"/><line class="a5e4a0d9-2058-4d5b-9c89-bb283e262ebd" x1="566.76" y1="678.65" x2="228.16" y2="331.21"/><line class="a5e4a0d9-2058-4d5b-9c89-bb283e262ebd" x1="398.93" y1="790.53" x2="63.28" y2="652.15"/><line class="a5e4a0d9-2058-4d5b-9c89-bb283e262ebd" x1="1037.86" y1="1341.13" x2="1258.69" y2="1856.39"/><line class="a5e4a0d9-2058-4d5b-9c89-bb283e262ebd" x1="1202.75" y1="1279.3" x2="1541.35" y2="1626.73"/><line class="a5e4a0d9-2058-4d5b-9c89-bb283e262ebd" x1="1370.57" y1="1167.41" x2="1706.23" y2="1305.8"/><line class="a5e4a0d9-2058-4d5b-9c89-bb283e262ebd" x1="731.65" y1="1341.13" x2="510.82" y2="1856.39"/><line class="a5e4a0d9-2058-4d5b-9c89-bb283e262ebd" x1="566.76" y1="1279.3" x2="228.16" y2="1626.73"/><line class="a5e4a0d9-2058-4d5b-9c89-bb283e262ebd" x1="398.93" y1="1167.41" x2="63.28" y2="1305.8"/></svg>