<svg id="a29e1c58-1240-4ed7-a20f-849c08e45062" data-name="Layer 1" xmlns="http://www.w3.org/2000/svg" viewBox="0 0 2000 2000"><defs><style>.bedf6177-9e63-4044-8a57-e354a3424301{fill:none;stroke:#111626;stroke-miterlimit:10;stroke-width:6px;}</style></defs><title>grid</title><circle class="bedf6177-9e63-4044-8a57-e354a3424301" cx="992.33" cy="1000" r="1299"/><circle class="bedf6177-9e63-4044-8a57-e354a3424301" cx="1020.32" cy="1000" r="1180.91"/><circle class="bedf6177-9e63-4044-8a57-e354a3424301" cx="1097.05" cy="1000" r="1062.82"/><circle class="bedf6177-9e63-4044-8a57-e354a3424301" cx="1211.71" cy="1000" r="944.73"/><circle class="bedf6177-9e63-4044-8a57-e354a3424301" cx="1353.44" cy="1000" r="826.64"/><circle class="bedf6177-9e63-4044-8a57-e354a3424301" cx="1511.42" cy="1000" r="708.55" transform="translate(-264.42 1361.63) rotate(-45)"/><circle class="bedf6177-9e63-4044-8a57-e354a3424301" cx="1674.82" cy="1000" r="590.45"/><circle class="bedf6177-9e63-4044-8a57-e354a3424301" cx="1832.8" cy="1000" r="472.36"/><circle class="bedf6177-9e63-4044-8a57-e354a3424301" cx="1974.54" cy="1000" r="354.27"/><circle class="bedf6177-9e63-4044-8a57-e354a3424301" cx="2089.19" cy="1000" r="236.18" transform="translate(-95.2 1770.17) rotate(-45)"/><path class="bedf6177-9e63-4044-8a57-e354a3424301" d="M2193.91,1000c0,519.6-1201.58,779.4-1201.58,1299"/><path class="bedf6177-9e63-4044-8a57-e354a3424301" d="M2193.91,1000c305.41,420.37-522.41,630.55-400.51,1050.91"/><path class="bedf6177-9e63-4044-8a57-e354a3424301" d="M2193.91,1000C2499.32,579.63,1671.5,369.45,1793.4-50.91"/><path class="bedf6177-9e63-4044-8a57-e354a3424301" d="M2193.91,1000c0-519.6-1201.58-779.4-1201.58-1299"/><path class="bedf6177-9e63-4044-8a57-e354a3424301" d="M2193.91,1000C1888.5,579.63,755.26,369.45,266.34-50.91"/><path class="bedf6177-9e63-4044-8a57-e354a3424301" d="M2193.91,1000C1699.74,839.43,390.22,759.15-232.52,598.59"/><path class="bedf6177-9e63-4044-8a57-e354a3424301" d="M2193.91,1000c-494.17,160.57-1803.69,240.85-2426.43,401.41"/><path class="bedf6177-9e63-4044-8a57-e354a3424301" d="M2193.91,1000C1888.5,1420.37,755.26,1630.55,266.34,2050.91"/></svg>