<svg id="be9daa79-f9b5-431a-8376-b645373ad76a" data-name="Layer 1" xmlns="http://www.w3.org/2000/svg" viewBox="0 0 2000 2000"><defs><style>.e228ebeb-5c06-47fa-a927-4027a4354300,.e38eb6fa-b84a-40c4-a0c6-1f68161e2410{fill:none;stroke-miterlimit:10;stroke-width:10px;}.e38eb6fa-b84a-40c4-a0c6-1f68161e2410{stroke:#2e6ac0;}.e4703fbe-a40d-4d15-ad3e-0b16e7ff4fb4{font-size:86px;}.b252e402-cd17-436c-b888-a62c969ea171,.bb10271b-8608-4f06-aaa8-61611a7d5a08,.e4703fbe-a40d-4d15-ad3e-0b16e7ff4fb4,.f00af5cf-acea-47c2-9eae-5296fc82492d{fill:#4170be;}.b252e402-cd17-436c-b888-a62c969ea171,.bb10271b-8608-4f06-aaa8-61611a7d5a08,.e4703fbe-a40d-4d15-ad3e-0b16e7ff4fb4{font-family:VCHenrietta-Trial-Bold, VC Henrietta Trial;font-weight:700;}.bb10271b-8608-4f06-aaa8-61611a7d5a08{font-size:105px;}.b252e402-cd17-436c-b888-a62c969ea171{font-size:225px;}.e228ebeb-5c06-47fa-a927-4027a4354300{stroke:#4170be;}</style></defs><title>LOGO</title><path class="e38eb6fa-b84a-40c4-a0c6-1f68161e2410" d="M1028.81,229.47H971.19A669.2,669.2,0,0,0,519,405.38h0c-73,66.89-129.36,148.33-169.43,237.91C303.85,745.46,281,856.38,281,968.31v60.23c0,100.56,18.41,200.41,55.57,293.85,39.7,99.84,98.81,190.87,177.86,264.69l3.58,3.35a669.24,669.24,0,0,0,456.77,180.12h50.44A669.24,669.24,0,0,0,1482,1590.43l3.58-3.35c82.85-77.38,143.8-173.65,183.69-279.17,34-89.82,50.74-185.21,50.74-281.23V969.84c0-99.39-18-198.07-54.3-290.59C1625,575.52,1563.64,481.12,1481,405.38h0A669.2,669.2,0,0,0,1028.81,229.47Z"/><text class="e4703fbe-a40d-4d15-ad3e-0b16e7ff4fb4" transform="translate(604.39 1046.27) rotate(84.07) scale(0.97 1)">E</text><text class="e4703fbe-a40d-4d15-ad3e-0b16e7ff4fb4" transform="translate(614.22 1118.55) rotate(72.15) scale(0.97 1)">S</text><text class="e4703fbe-a40d-4d15-ad3e-0b16e7ff4fb4" transform="translate(635.93 1184.69) rotate(64.8) scale(0.97 1)">T</text><text class="e4703fbe-a40d-4d15-ad3e-0b16e7ff4fb4" transform="translate(664.25 1244.35) rotate(55.68) scale(0.97 1)">A</text><text class="e4703fbe-a40d-4d15-ad3e-0b16e7ff4fb4" transform="translate(712.54 1311.58) rotate(43.81) scale(0.97 1)">B</text><text class="e4703fbe-a40d-4d15-ad3e-0b16e7ff4fb4" transform="matrix(0.81, 0.52, -0.54, 0.84, 768.84, 1362.92)">L</text><text class="e4703fbe-a40d-4d15-ad3e-0b16e7ff4fb4" transform="translate(825.19 1397) rotate(24.08) scale(0.97 1)">I</text><text class="e4703fbe-a40d-4d15-ad3e-0b16e7ff4fb4" transform="translate(867.1 1415.48) rotate(14.94) scale(0.97 1)">S</text><text class="e4703fbe-a40d-4d15-ad3e-0b16e7ff4fb4" transform="translate(936.4 1432.89) rotate(2.49) scale(0.97 1)">H</text><text class="e4703fbe-a40d-4d15-ad3e-0b16e7ff4fb4" transform="translate(1020.07 1435.75) rotate(-5.18) scale(0.97 1)">E</text><text class="e4703fbe-a40d-4d15-ad3e-0b16e7ff4fb4" transform="translate(1091.76 1427.92) rotate(-17.33) scale(0.97 1)">D</text><text class="e4703fbe-a40d-4d15-ad3e-0b16e7ff4fb4" transform="translate(1167.17 1401.13) rotate(-26.1) scale(0.97 1)"> </text><text class="e4703fbe-a40d-4d15-ad3e-0b16e7ff4fb4" transform="matrix(0.83, -0.5, 0.52, 0.85, 1189.49, 1390.09)">I</text><text class="e4703fbe-a40d-4d15-ad3e-0b16e7ff4fb4" transform="translate(1229.88 1365.49) rotate(-40.97) scale(0.97 1)">N</text><text class="e4703fbe-a40d-4d15-ad3e-0b16e7ff4fb4" transform="translate(1286.75 1312.34) rotate(-49.19) scale(0.97 1)"> </text><text class="e4703fbe-a40d-4d15-ad3e-0b16e7ff4fb4" transform="translate(1303.85 1293.23) rotate(-55.62) scale(0.97 1)">2</text><text class="e4703fbe-a40d-4d15-ad3e-0b16e7ff4fb4" transform="translate(1341.91 1235.7) rotate(-65.51) scale(0.97 1)">0</text><text class="e4703fbe-a40d-4d15-ad3e-0b16e7ff4fb4" transform="translate(1374.16 1163.37) rotate(-74.23) scale(0.97 1)">0</text><text class="e4703fbe-a40d-4d15-ad3e-0b16e7ff4fb4" transform="translate(1392.31 1089.88) rotate(-84.43) scale(0.97 1)">1</text><text class="bb10271b-8608-4f06-aaa8-61611a7d5a08" transform="translate(674.24 950.65) rotate(-81.64) scale(0.97 1)">L</text><text class="bb10271b-8608-4f06-aaa8-61611a7d5a08" transform="translate(684.36 884.97) rotate(-68.2) scale(0.97 1)">O</text><text class="bb10271b-8608-4f06-aaa8-61611a7d5a08" transform="translate(715.73 806.62) rotate(-57.52) scale(0.97 1)">P</text><text class="bb10271b-8608-4f06-aaa8-61611a7d5a08" transform="matrix(0.68, -0.68, 0.71, 0.71, 753.94, 746.92)">E</text><text class="bb10271b-8608-4f06-aaa8-61611a7d5a08" transform="matrix(0.82, -0.51, 0.53, 0.85, 805.52, 696.28)">Z</text><text class="bb10271b-8608-4f06-aaa8-61611a7d5a08" transform="translate(866.52 661.27) rotate(-22.49) scale(0.97 1)"> </text><text class="bb10271b-8608-4f06-aaa8-61611a7d5a08" transform="translate(890.63 651.28) rotate(-15.84) scale(0.97 1)">-</text><text class="bb10271b-8608-4f06-aaa8-61611a7d5a08" transform="translate(932.06 640.58) rotate(-8.91) scale(0.97 1)"> </text><text class="bb10271b-8608-4f06-aaa8-61611a7d5a08" transform="translate(956.33 635.69) scale(0.97 1)">H</text><text class="bb10271b-8608-4f06-aaa8-61611a7d5a08" transform="matrix(0.94, 0.21, -0.22, 0.98, 1045.03, 635.3)">E</text><text class="bb10271b-8608-4f06-aaa8-61611a7d5a08" transform="matrix(0.86, 0.44, -0.46, 0.89, 1113.53, 650.38)">R</text><text class="bb10271b-8608-4f06-aaa8-61611a7d5a08" transform="translate(1185.84 688.43) rotate(42.92) scale(0.97 1)">R</text><text class="bb10271b-8608-4f06-aaa8-61611a7d5a08" transform="matrix(0.53, 0.81, -0.84, 0.55, 1245.43, 745.73)">E</text><text class="bb10271b-8608-4f06-aaa8-61611a7d5a08" transform="translate(1284.74 805.85) rotate(68.65) scale(0.97 1)">R</text><text class="bb10271b-8608-4f06-aaa8-61611a7d5a08" transform="matrix(0.14, 0.96, -0.99, 0.14, 1316.9, 884.59)">A</text><text class="b252e402-cd17-436c-b888-a62c969ea171" transform="translate(1510.88 1066.94) rotate(103.56)">A</text><text class="b252e402-cd17-436c-b888-a62c969ea171" transform="translate(1466 1242.51) rotate(121.44)">D</text><text class="b252e402-cd17-436c-b888-a62c969ea171" transform="translate(1375.02 1393.18) rotate(142.71)">O</text><text class="b252e402-cd17-436c-b888-a62c969ea171" transform="matrix(-0.95, 0.31, -0.31, -0.95, 1233.36, 1497.66)">L</text><text class="b252e402-cd17-436c-b888-a62c969ea171" transform="matrix(-1, 0.01, -0.01, -1, 1099.48, 1541.56)">F</text><text class="b252e402-cd17-436c-b888-a62c969ea171" transform="matrix(-0.97, -0.26, 0.26, -0.97, 947.52, 1550.01)">O</text><text class="b252e402-cd17-436c-b888-a62c969ea171" transform="translate(766.97 1491.58) rotate(-150.26)"> </text><text class="b252e402-cd17-436c-b888-a62c969ea171" transform="translate(715.12 1466.19) rotate(-137.08)">L</text><text class="b252e402-cd17-436c-b888-a62c969ea171" transform="translate(609.59 1359.9) rotate(-123.87)">.</text><text class="b252e402-cd17-436c-b888-a62c969ea171" transform="matrix(-0.35, -0.93, 0.93, -0.35, 565.44, 1302.13)">H</text><text class="b252e402-cd17-436c-b888-a62c969ea171" transform="translate(503.66 1120.75) rotate(-94.59)">.</text><text class="b252e402-cd17-436c-b888-a62c969ea171" transform="translate(490.12 933.09) rotate(-76.44)">A</text><text class="b252e402-cd17-436c-b888-a62c969ea171" transform="matrix(0.52, -0.85, 0.85, 0.52, 535, 757.51)">D</text><text class="b252e402-cd17-436c-b888-a62c969ea171" transform="matrix(0.8, -0.61, 0.61, 0.8, 625.98, 606.85)">O</text><text class="b252e402-cd17-436c-b888-a62c969ea171" transform="translate(767.64 502.37) rotate(-18.15)">L</text><text class="b252e402-cd17-436c-b888-a62c969ea171" transform="matrix(1, -0.01, 0.01, 1, 901.52, 458.46)">F</text><text class="b252e402-cd17-436c-b888-a62c969ea171" transform="matrix(0.97, 0.26, -0.26, 0.97, 1053.48, 450.02)">O</text><text class="b252e402-cd17-436c-b888-a62c969ea171" transform="translate(1234.03 508.45) rotate(29.74)"> </text><text class="b252e402-cd17-436c-b888-a62c969ea171" transform="translate(1285.88 533.83) rotate(42.92)">L</text><text class="b252e402-cd17-436c-b888-a62c969ea171" transform="matrix(0.56, 0.83, -0.83, 0.56, 1391.41, 640.12)">.</text><text class="b252e402-cd17-436c-b888-a62c969ea171" transform="translate(1435.56 697.9) rotate(69.21)">H</text><text class="b252e402-cd17-436c-b888-a62c969ea171" transform="translate(1497.34 879.28) rotate(85.41)">.</text><path class="e38eb6fa-b84a-40c4-a0c6-1f68161e2410" d="M1017.56,519H982.84C882,519,784.75,558.18,710.39,628.81h0c-44,41.76-77.94,92.6-102.08,148.51-27.54,63.79-41.31,133-41.31,202.9v37.6c0,62.78,11.09,125.11,33.48,183.44,23.92,62.32,59.54,119.15,107.16,165.23l2.16,2.09C784.47,1440.84,882.83,1481,985,1481h30.4c102.17,0,200.53-40.19,275.2-112.45l2.16-2.09c49.91-48.3,86.64-108.4,110.67-174.27A512.31,512.31,0,0,0,1434,1016.66V981.18a512.4,512.4,0,0,0-32.71-181.4c-24.53-64.76-61.5-123.69-111.28-171h0C1215.65,558.18,1118.43,519,1017.56,519Z"/><path class="e38eb6fa-b84a-40c4-a0c6-1f68161e2410" d="M1012,676H988.59c-68.07,0-133.66,26.39-183.84,74h0c-29.67,28.13-52.59,62.37-68.88,100A344.45,344.45,0,0,0,708,986.68V1012a344.32,344.32,0,0,0,22.59,123.56c16.14,42,40.17,80.26,72.31,111.3l1.45,1.41C854.74,1297,921.1,1324,990,1324h20.51c68.94,0,135.31-27.08,185.69-75.75l1.46-1.41c33.68-32.53,58.46-73,74.67-117.39A344.44,344.44,0,0,0,1293,1011.23v-23.9a344.83,344.83,0,0,0-22.07-122.2c-16.55-43.62-41.5-83.31-75.09-115.16h0C1145.67,702.39,1080.07,676,1012,676Z"/><path class="e228ebeb-5c06-47fa-a927-4027a4354300" d="M815,1000s66-102,185-102,185,102,185,102-66,102-185,102S815,1000,815,1000Z"/><path class="e228ebeb-5c06-47fa-a927-4027a4354300" d="M777,1000s79.56-128,223-128,223,128,223,128-79.56,128-223,128S777,1000,777,1000Z"/><circle class="f00af5cf-acea-47c2-9eae-5296fc82492d" cx="1000" cy="1000" r="52"/><line class="e228ebeb-5c06-47fa-a927-4027a4354300" x1="1000" y1="872" x2="1000" y2="676"/><line class="e228ebeb-5c06-47fa-a927-4027a4354300" x1="1223" y1="1000" x2="1293" y2="1000"/><line class="e228ebeb-5c06-47fa-a927-4027a4354300" x1="708" y1="1000" x2="777" y2="1000"/><line class="e228ebeb-5c06-47fa-a927-4027a4354300" x1="1000" y1="1128" x2="1000" y2="1324"/><line class="e228ebeb-5c06-47fa-a927-4027a4354300" x1="1052" y1="877" x2="1127" y2="702"/><line class="e228ebeb-5c06-47fa-a927-4027a4354300" x1="1108" y1="898" x2="1223" y2="780"/><line class="e228ebeb-5c06-47fa-a927-4027a4354300" x1="1165" y1="936" x2="1279" y2="889"/><line class="e228ebeb-5c06-47fa-a927-4027a4354300" x1="948" y1="877" x2="873" y2="702"/><line class="e228ebeb-5c06-47fa-a927-4027a4354300" x1="892" y1="898" x2="777" y2="780"/><line class="e228ebeb-5c06-47fa-a927-4027a4354300" x1="835" y1="936" x2="721" y2="889"/><line class="e228ebeb-5c06-47fa-a927-4027a4354300" x1="1052" y1="1123" x2="1127" y2="1298"/><line class="e228ebeb-5c06-47fa-a927-4027a4354300" x1="1108" y1="1102" x2="1223" y2="1220"/><line class="e228ebeb-5c06-47fa-a927-4027a4354300" x1="1165" y1="1064" x2="1279" y2="1111"/><line class="e228ebeb-5c06-47fa-a927-4027a4354300" x1="948" y1="1123" x2="873" y2="1298"/><line class="e228ebeb-5c06-47fa-a927-4027a4354300" x1="892" y1="1102" x2="777" y2="1220"/><line class="e228ebeb-5c06-47fa-a927-4027a4354300" x1="835" y1="1064" x2="721" y2="1111"/><line class="e228ebeb-5c06-47fa-a927-4027a4354300" x1="506" y1="1000" x2="343" y2="1000"/><line class="e228ebeb-5c06-47fa-a927-4027a4354300" x1="506" y1="1030" x2="506" y2="971"/><line class="e228ebeb-5c06-47fa-a927-4027a4354300" x1="425" y1="1030" x2="425" y2="971"/><line class="e228ebeb-5c06-47fa-a927-4027a4354300" x1="1494" y1="999" x2="1657" y2="999"/><line class="e228ebeb-5c06-47fa-a927-4027a4354300" x1="1494" y1="1029" x2="1494" y2="970"/><line class="e228ebeb-5c06-47fa-a927-4027a4354300" x1="1575" y1="1029" x2="1575" y2="970"/></svg>