<svg id="a1b6e6fb-d1db-4086-bfda-f8679ba0764a" data-name="Layer 1" xmlns="http://www.w3.org/2000/svg" viewBox="0 0 1948 1948"><defs><style>.a480de11-d642-45d2-aeff-f018f6f88dd0{fill:#f5f6f8;stroke:#4170be;stroke-miterlimit:10;stroke-width:50px;}.fc6c3a20-0872-4ae2-b457-4b3a5f5b381e{fill:#111626;}</style></defs><title>LOGO</title><circle class="a480de11-d642-45d2-aeff-f018f6f88dd0" cx="974" cy="974" r="949"/><path class="fc6c3a20-0872-4ae2-b457-4b3a5f5b381e" d="M188,1202.28c0-15.1,6.29-24.54,14.47-32.09,8.81-8.18,12.59-15.1,17-25.17,22.65-58.51,35.24-119.55,59.15-178.06,23.91-59.15,50.33-119.55,74.87-164.85,13.21-24.54,25.8-35.24,44-35.24,9.43,0,21.39,1.89,30.2,1.89,12.58,0,23.28-1.89,34-1.89,17,0,25.8,9.44,33.35,22,43.42,69.22,73.62,145.35,103.19,220.85,16.36,44.68,30.83,89.35,47.19,134,4.41,13.21,14.48,22.65,23.91,32.71,5.67,6.93,8.81,16.36,8.81,26.43,0,13.21-5.66,30.2-26.42,30.2H481.21c-20.13,0-30.83-13.84-30.83-30.83,0-13.84,7.55-25.8,19.51-34.6,12.58-8.81,13.21-18.25,13.21-32.09a55.38,55.38,0,0,0-1.26-10.7c-2.52-10.7-8.18-17-19.51-17-20.76-.63-42.78-.63-63.55-.63-18.24,0-37.12,0-54.74.63-11.32,0-18.24,4.41-22,11.33-3.15,5-3.77,10.06-3.77,15.1,0,13.84,5,21.39,17,34,12.59,13.21,15.74,23.91,15.74,33.34,0,13.85-4.41,31.46-25.17,31.46H216.94C197.44,1233.11,188,1223.05,188,1202.28Zm182.47-173.66h64.18c10.7,0,13.84-7.55,8.81-20.13-8.81-27.06-24.54-63.55-38.38-90-4.41-7.55-10.7-6.29-13.85.63-13.84,28.94-26.42,61-34.6,89.35C352.85,1021.07,356.63,1028.62,370.47,1028.62Z" transform="translate(-26 -26)"/><path class="fc6c3a20-0872-4ae2-b457-4b3a5f5b381e" d="M810.29,1201.65c0-10.06,3.15-19.5,15.73-28.31,15.73-12,21.39-23.28,20.76-51.6v-241c.63-28.32-3.77-39.64-19.5-50.34-13.21-9.44-16.36-18.25-16.36-28.94,0-15.1,7.55-32.09,33.35-32.09h151c34-.63,44,16.36,44,32.09,0,11.95-3.77,20.76-20.76,30.83-20.14,12-27.06,23.28-26.43,52.85l-.63,216.45c0,37.12,7.55,57.89,39,57.89,23.28,0,49.08-25.17,80.54-52.86,16.36-14.47,36.5-33.35,55.37-33.35,15.1,0,23.28,9.44,23.28,27.69,0,23.91-15.73,81.8-24.54,107.59-6.92,18.25-15.73,24.54-35.86,24.54H845.53C819.1,1233.74,810.29,1216.75,810.29,1201.65Z" transform="translate(-26 -26)"/><path class="fc6c3a20-0872-4ae2-b457-4b3a5f5b381e" d="M1309.26,1201c0-10.06,3.15-19.5,16.36-28.31,15.73-11.33,20.14-22.65,19.51-51v-241c.63-28.32-3.78-39.64-19.51-51-13.21-8.81-16.36-18.25-16.36-28.31,0-15.1,8.18-32.09,34.61-32.09h146.61c30.83,0,40.26,17,40.26,32.09,0,10.06-4.4,19.5-18.87,28.31-18.25,11.33-23.28,22.65-22.65,51v38.38c0,13.21,4.4,18.25,11.32,18.25l107,1.25c20.76,0,23.28-4.4,23.28-24.53V880.76c.63-28.32-4.41-39.64-22.65-51-14.48-8.81-18.88-18.25-18.88-28.31,0-15.1,9.44-32.09,40.27-32.09h147.23c26.43,0,34.61,17,34.61,32.09,0,10.06-3.14,19.5-16.36,28.31-15.73,11.33-20.13,22.65-19.5,51v241c-.63,28.32,5,39.64,20.76,51.6,12.58,8.81,15.73,18.25,15.73,28.31,0,15.1-8.81,32.09-35.24,31.46H1629.53c-30.83,0-40.27-17-40.27-32.09,0-10.06,4.4-19.5,18.88-28.31,18.24-11.33,23.28-22.65,22.65-51v-74.87c0-20.77-9.44-22-28.94-22h-97.53c-8.18,0-13.84,5-13.84,13.21l-.63,83.68c-.63,28.32,5.66,39.64,23.28,51.6,14.47,8.81,18.24,18.25,18.24,28.94-.63,15.1-10.06,31.46-40.89,30.83H1343.87C1317.44,1233.11,1309.26,1216.12,1309.26,1201Z" transform="translate(-26 -26)"/></svg>