<svg id="e8353a95-e145-46a4-8b80-d9d89a3cc6a0" data-name="Layer 1" xmlns="http://www.w3.org/2000/svg" viewBox="0 0 448 448"><title>smiley</title><path d="M350,126a224,224,0,1,0,112,30,224,224,0,0,0-112-30Zm0,425.6a201.61,201.61,0,1,1,142.55-59.05A201.57,201.57,0,0,1,350,551.6Z" transform="translate(-126 -126)"/><path d="M501.54,338.8a11.2,11.2,0,0,0-11.2,11.2,140.34,140.34,0,1,1-280.68,0,11.2,11.2,0,1,0-22.39,0,162.73,162.73,0,0,0,325.46,0,11.2,11.2,0,0,0-11.2-11.2Z" transform="translate(-126 -126)"/><path d="M313.77,292.38c0,24.56-13.27,44.47-29.63,44.47s-29.62-19.91-29.62-44.47,13.26-44.46,29.62-44.46,29.63,19.91,29.63,44.46" transform="translate(-126 -126)"/><path d="M445.48,292.38c0,24.56-13.26,44.47-29.63,44.47s-29.62-19.91-29.62-44.47,13.27-44.46,29.62-44.46,29.63,19.91,29.63,44.46" transform="translate(-126 -126)"/></svg>