<svg id="bf75fb5c-224b-4f45-96d0-c52e6bfe63ca" data-name="Layer 1" xmlns="http://www.w3.org/2000/svg" viewBox="0 0 481.61 481.6"><defs><style>.a2a0bb33-0ef7-4e7b-9478-b210ad41efc7{fill-rule:evenodd;}</style></defs><title>star</title><path class="a2a0bb33-0ef7-4e7b-9478-b210ad41efc7" d="M350.26,109.21a5.61,5.61,0,0,0-5.82,4.9l-14.62,117.6L319,318.94l-87.28,10.89-117.6,14.61h0a5.6,5.6,0,0,0,0,11.12l117.6,14.61L319,381.06l10.83,87.24,14.62,117.6h0a5.6,5.6,0,0,0,11.12,0l14.67-117.6,10.83-87.23,87.23-10.89,117.6-14.61h0a5.6,5.6,0,0,0,0-11.12l-117.6-14.62-87.23-10.88-10.83-87.23h0L355.56,114.1a5.61,5.61,0,0,0-5.3-4.9Z" transform="translate(-109.2 -109.2)"/></svg>